<svg width="31" height="30" viewBox="0 0 31 30" fill="none" xmlns="http://www.w3.org/2000/svg">
<g clip-path="url(#clip0_1_10)">
<path d="M25.9015 22.7082H9.23325C8.703 22.7082 8.23038 22.5487 7.81541 22.2296C7.40043 21.9105 7.14683 21.498 7.05461 20.9919L3.45814 2.07939H1.07202C0.772319 2.07939 0.518722 1.98037 0.311233 1.78233C0.103744 1.5843 0 1.33675 0 1.0397C0 0.742641 0.103744 0.495095 0.311233 0.297058C0.518722 0.0990218 0.772319 3.54648e-06 1.07202 3.54648e-06H3.49273C4.02297 3.54648e-06 4.48406 0.159533 4.87598 0.478592C5.26791 0.797651 5.50998 1.19922 5.60219 1.68331L9.23325 20.6288H25.9015C26.2012 20.6288 26.4548 20.7278 26.6623 20.9259C26.8698 21.1239 26.9793 21.3714 26.9908 21.6685C27.0023 21.9656 26.8986 22.2131 26.6796 22.4111C26.4606 22.6092 26.2012 22.7082 25.9015 22.7082ZM9.71739 27.8571C9.02576 27.8571 8.39176 27.6976 7.81541 27.3786C7.23905 27.0595 6.77796 26.6194 6.43215 26.0583C6.08633 25.4972 5.91919 24.8921 5.93072 24.243C5.94224 23.5939 6.11515 22.9887 6.44944 22.4276C6.78373 21.8665 7.23905 21.4265 7.81541 21.1074C8.39176 20.7883 9.02576 20.6288 9.71739 20.6288C10.409 20.6288 11.043 20.7883 11.6194 21.1074C12.1957 21.4265 12.6568 21.8665 13.0026 22.4276C13.3484 22.9887 13.5213 23.5939 13.5213 24.243C13.5213 24.8921 13.3484 25.4972 13.0026 26.0583C12.6568 26.6194 12.1957 27.0595 11.6194 27.3786C11.043 27.6976 10.409 27.8571 9.71739 27.8571ZM9.71739 22.7082C9.39463 22.6642 9.08916 22.7027 8.80098 22.8237C8.5128 22.9447 8.28226 23.1373 8.10935 23.4013C7.93644 23.6654 7.84999 23.9459 7.84999 24.243C7.84999 24.54 7.93644 24.8206 8.10935 25.0846C8.28226 25.3487 8.5128 25.5412 8.80098 25.6622C9.08916 25.7833 9.39463 25.8218 9.71739 25.7778C10.1093 25.7118 10.4378 25.5357 10.703 25.2497C10.9681 24.9636 11.1006 24.6281 11.1006 24.243C11.1006 23.8579 10.9681 23.5223 10.703 23.2363C10.4378 22.9502 10.1093 22.7742 9.71739 22.7082ZM25.9015 27.8571C25.2099 27.8571 24.5759 27.6976 23.9995 27.3786C23.4232 27.0595 22.9678 26.6194 22.6336 26.0583C22.2993 25.4972 22.1321 24.8921 22.1321 24.243C22.1321 23.5939 22.2993 22.9887 22.6336 22.4276C22.9678 21.8665 23.4232 21.4265 23.9995 21.1074C24.5759 20.7883 25.2099 20.6288 25.9015 20.6288C26.5931 20.6288 27.2271 20.7883 27.8035 21.1074C28.3798 21.4265 28.8352 21.8665 29.1694 22.4276C29.5037 22.9887 29.6709 23.5939 29.6709 24.243C29.6709 24.8921 29.5037 25.4972 29.1694 26.0583C28.8352 26.6194 28.3798 27.0595 27.8035 27.3786C27.2271 27.6976 26.5931 27.8571 25.9015 27.8571ZM25.9015 22.7082C25.5787 22.6642 25.2733 22.7027 24.9851 22.8237C24.6969 22.9447 24.4664 23.1373 24.2935 23.4013C24.1206 23.6654 24.0341 23.9459 24.0341 24.243C24.0341 24.54 24.1206 24.8206 24.2935 25.0846C24.4664 25.3487 24.6969 25.5412 24.9851 25.6622C25.2733 25.7833 25.5787 25.8218 25.9015 25.7778C26.2934 25.7118 26.6219 25.5357 26.8871 25.2497C27.1522 24.9636 27.2848 24.6281 27.2848 24.243C27.2848 23.8579 27.1522 23.5223 26.8871 23.2363C26.6219 22.9502 26.2934 22.7742 25.9015 22.7082ZM27.181 18.5824H7.53876C7.23905 18.5824 6.97969 18.4834 6.76067 18.2854C6.54166 18.0873 6.43791 17.8398 6.44944 17.5427C6.46097 17.2457 6.57047 16.9981 6.77796 16.8001C6.98545 16.6021 7.23905 16.5031 7.53876 16.5031H27.181L28.9447 7.22834H5.39471C5.095 7.22834 4.83564 7.12932 4.61662 6.93128C4.39761 6.73325 4.29386 6.4857 4.30539 6.18865C4.31692 5.89159 4.42642 5.64405 4.63391 5.44601C4.8414 5.24797 5.095 5.14895 5.39471 5.14895H28.9447C29.2674 5.14895 29.5729 5.21497 29.8611 5.34699C30.1493 5.47902 30.3971 5.66055 30.6046 5.89159C30.8121 6.12263 30.9504 6.38668 31.0196 6.68374C31.0887 6.98079 31.0887 7.28335 31.0196 7.59141L29.2559 16.8661C29.1867 17.3502 28.9504 17.7518 28.547 18.0708C28.1435 18.3899 27.6882 18.5604 27.181 18.5824Z" fill="#333333"/>
</g>
<defs>
<clipPath id="clip0_1_10">
<rect width="30.6818" height="30" fill="white" transform="matrix(1 0 0 -1 0 30)"/>
</clipPath>
</defs>
</svg>
