<svg width="21" height="21" viewBox="0 0 21 21" fill="none" xmlns="http://www.w3.org/2000/svg">
<path d="M20.132 11.6584H0.868C0.625333 11.6584 0.42 11.5463 0.252 11.3221C0.084 11.0979 0 10.8238 0 10.5C0 10.1762 0.084 9.90214 0.252 9.67794C0.42 9.45374 0.625333 9.34164 0.868 9.34164H20.132C20.3747 9.34164 20.58 9.45374 20.748 9.67794C20.916 9.90214 21 10.1762 21 10.5C21 10.8238 20.916 11.0979 20.748 11.3221C20.58 11.5463 20.3747 11.6584 20.132 11.6584ZM20.132 2.31673H0.868C0.625333 2.31673 0.42 2.20463 0.252 1.98043C0.084 1.75623 0 1.48221 0 1.15836C0 0.83452 0.084 0.560498 0.252 0.336299C0.42 0.112099 0.625333 0 0.868 0H20.132C20.3747 0 20.58 0.112099 20.748 0.336299C20.916 0.560498 21 0.83452 21 1.15836C21 1.48221 20.916 1.75623 20.748 1.98043C20.58 2.20463 20.3747 2.31673 20.132 2.31673ZM20.132 21H0.868C0.625333 21 0.42 20.8879 0.252 20.6637C0.084 20.4395 0 20.1655 0 19.8416C0 19.5178 0.084 19.2438 0.252 19.0196C0.42 18.7954 0.625333 18.6833 0.868 18.6833H20.132C20.3747 18.6833 20.58 18.7954 20.748 19.0196C20.916 19.2438 21 19.5178 21 19.8416C21 20.1655 20.916 20.4395 20.748 20.6637C20.58 20.8879 20.3747 21 20.132 21Z" fill="#333333"/>
</svg>
