<svg width="111" height="60" viewBox="0 0 111 60" fill="none" xmlns="http://www.w3.org/2000/svg">
<path d="M17.9398 37.7999C16.1498 37.2499 14.0998 35.7399 13.4498 32.3499C14.6798 36.0499 18.3598 36.2199 20.0198 35.2399C21.1098 34.5999 21.9198 33.5699 22.1998 32.5599C22.5798 31.2799 26.1598 18.9799 26.1598 18.9799C27.3398 14.8799 31.7298 15.6099 32.3198 16.1599C30.7198 17.1399 29.8798 20.2499 29.8798 20.2499L26.1498 32.8999C24.6298 37.4599 20.9198 38.7299 17.9398 37.7999ZM97.8898 32.8599C98.1598 31.9299 99.2598 28.0799 99.2598 28.0799C97.6798 27.6599 97.3798 26.4599 97.3298 25.6899C96.5898 25.8399 95.9498 26.3799 95.7298 27.1599L93.7598 33.9599C93.4298 35.0999 94.2298 36.1499 95.3698 36.1599C97.1098 36.1799 97.7598 33.2899 97.8898 32.8599ZM77.5698 26.1699L76.0398 25.7299C74.9298 25.4099 73.7698 26.0499 73.4498 27.1599L71.4598 34.0399C71.1098 35.2599 72.1998 36.4099 73.4498 36.1299L75.2798 35.6799C75.1598 35.1099 75.1798 34.5099 75.3498 33.8899L77.5698 26.1699ZM69.5098 26.7099C70.1898 24.3599 72.4598 22.8899 74.8198 23.1399C74.8998 22.9299 74.9698 22.7199 75.0298 22.4999C76.0398 18.7599 73.8098 14.9199 70.0598 13.9099C66.3398 12.9199 62.4798 15.1499 61.4298 18.8199L59.1198 26.8299C60.0398 27.2399 60.9798 27.6199 61.9498 27.9699L64.2798 19.8599C64.4298 19.1299 64.7898 18.4599 65.3198 17.9099C66.0698 17.1399 67.0698 16.7099 68.1398 16.6899C68.1598 16.6899 68.1898 16.6899 68.2098 16.6899C70.3898 16.6899 72.1898 18.4599 72.2298 20.6299C72.2298 20.8799 72.1998 21.1299 72.1798 21.3599C72.2998 20.0399 71.6998 19.3599 70.6998 19.0799C70.6898 19.0799 70.6798 19.0699 70.6598 19.0699C70.1298 18.9299 69.5698 18.9999 69.0898 19.2799C68.6098 19.5599 68.2698 19.9999 68.1198 20.5299L65.6698 29.0399C66.4898 29.1499 67.6298 29.1899 68.8698 28.8799L69.5098 26.7099ZM55.2698 26.1999C54.3498 25.6799 53.4498 25.1399 52.5698 24.5799L49.8598 34.0199C49.5098 35.2299 50.5898 36.3799 51.8198 36.1099L52.4498 35.9699L55.2698 26.1999ZM105.37 22.6799C105.58 22.6099 105.82 22.6799 105.75 23.4299C105.56 25.6099 104.19 26.8699 104.19 26.8699C102.71 28.2499 101.01 28.1999 101.01 28.1999C100.91 28.1999 100.81 28.2099 100.71 28.2099C100.7 28.2299 100.7 28.2499 100.7 28.2599L98.6598 35.3499C98.2398 36.8099 97.0598 37.9199 95.5798 38.2699L94.1998 38.5899C92.9098 38.8899 91.6898 38.4899 90.8198 37.7099L87.0098 38.5899C85.7198 38.8899 84.4998 38.4899 83.6298 37.7099L79.8198 38.5899C78.4598 38.8999 77.1698 38.4499 76.2998 37.5799L71.9098 38.5899C69.1098 39.2299 66.6498 36.6499 67.4398 33.8999L68.5098 30.1799C67.9298 30.2799 67.3898 30.3199 66.8798 30.3199C66.2998 30.3199 65.7798 30.2699 65.3398 30.1999L61.3998 43.8899C61.2198 44.5199 60.8798 45.1099 60.5198 45.6899C58.0998 49.5499 53.3698 51.0999 49.2198 49.6799C51.5798 49.5699 53.7698 48.5799 55.4098 46.8699C56.4698 45.7699 57.2198 44.4499 57.6098 43.0199L61.6098 29.1199C60.6398 28.7799 59.6898 28.3999 58.7698 27.9899L54.6998 42.1299C54.0298 44.6799 51.7298 46.5999 48.9498 46.6599C48.8998 46.6599 48.8498 46.6599 48.7998 46.6599C45.5098 46.6599 42.7298 44.0499 42.7098 40.7599C42.7198 40.9299 42.7798 41.4199 42.8698 41.7299C43.5098 43.9099 45.7898 45.1599 47.9798 44.5199C49.4098 44.1099 50.4298 42.9899 50.7998 41.6499L51.7798 38.2299L50.3098 38.5699C48.9498 38.8799 47.6698 38.4299 46.7998 37.5699L42.4398 38.5699C39.6398 39.2099 37.1798 36.6299 37.9698 33.8799L40.0998 26.4799C40.3198 25.7199 39.6298 24.9999 38.8598 25.1799L37.9098 25.3999L38.2098 24.3399L45.1998 22.7399L41.9598 34.0399C41.6098 35.2499 42.6898 36.3999 43.9198 36.1299L45.7698 35.7299C45.6398 35.1499 45.6498 34.5299 45.8298 33.8999L47.9598 26.4999C48.1798 25.7399 47.4998 25.0199 46.7198 25.1999L45.7698 25.4199L46.0698 24.3599L50.5698 23.3299C49.0398 22.2899 47.5598 21.2199 46.0898 20.1599C42.5898 17.6299 39.2898 15.2399 35.7798 13.6599C30.9598 11.4999 26.9798 10.9799 23.7198 11.2299C15.9298 11.9799 11.4898 18.1099 10.3798 25.2399C9.90977 28.2299 9.75977 33.7599 12.2798 37.3099C13.4598 38.9799 15.5598 40.4799 18.3798 41.0499C24.3298 42.2599 31.6798 39.5299 32.4798 29.8799C32.6998 27.2199 31.6298 26.6699 30.1098 26.6699C29.6998 26.6699 29.2198 26.6799 29.2198 26.6799L29.5698 25.5199C29.5698 25.5199 32.1998 25.6499 33.2598 20.7499C33.9198 17.6899 34.5598 15.3499 30.6698 14.2299C30.2898 14.1299 29.9498 14.0399 29.7298 13.9899C29.5698 13.9499 29.4198 13.9199 29.2598 13.8899C21.2298 12.4999 18.0098 16.6799 17.9698 16.7199L17.9398 16.7499C16.1798 18.7799 15.6498 20.8999 16.4398 22.7099C17.0998 24.2299 18.6998 25.3699 20.2198 25.4299C20.7898 25.4499 21.4798 25.4699 22.2898 25.4799H23.0498L22.6198 26.6599H22.2798C21.4498 26.6499 20.7398 26.6299 20.1698 26.6099C18.1798 26.5299 16.1998 25.1199 15.3498 23.1799C14.7798 21.8799 14.2398 19.2199 17.0198 15.9899C17.3098 15.6099 20.9498 11.1699 29.6598 12.7599C32.4498 13.3599 33.5498 13.9799 34.0998 14.2899C37.3398 16.1399 37.7098 18.4699 37.4098 20.8099C36.8298 25.2599 33.8198 25.5999 33.8198 25.5999C35.5798 25.6799 36.9398 27.8899 36.7398 31.2099C36.7398 33.3899 35.5698 36.5599 33.1898 38.8099C29.6898 42.0999 25.7098 42.9599 22.3598 42.9099C22.3398 42.9099 22.3198 42.9099 22.2898 42.9099C20.5898 42.9099 18.9598 42.6599 17.4098 42.1799C17.0198 42.0699 16.6598 41.9599 16.3598 41.8599C16.1398 41.7899 15.7298 41.6099 15.1998 41.3299C9.64977 38.6699 5.75977 32.9599 5.75977 26.3599C5.75977 19.0499 10.3998 12.8499 17.8198 10.6599C17.8698 10.6399 18.1298 10.5599 18.5498 10.4599C18.7598 10.4099 18.9798 10.3599 19.1898 10.3099C19.7198 10.1799 20.2698 10.0899 20.8198 10.0199C21.7998 9.88995 22.8098 9.81995 23.8498 9.81995C23.8398 9.81995 23.8298 9.82995 23.8198 9.82995C27.1098 9.78995 31.4798 10.3399 36.3098 12.5599C39.9198 14.2199 43.2798 16.6099 46.8298 19.1799C48.5798 20.4499 50.3498 21.7299 52.1898 22.9399L53.0998 22.7299L52.9098 23.3999C53.7898 23.9699 54.6898 24.5099 55.6098 25.0299L57.6798 17.8299C58.1798 16.2299 59.0998 14.7399 60.4398 13.5299C64.3998 9.97995 70.4998 10.2999 74.0598 14.2399C76.3998 16.8299 77.0698 20.3399 76.1298 23.4499C76.8598 23.7299 77.4898 24.1699 77.9898 24.7199L78.2798 23.7199L82.5898 22.7299L79.3398 34.0299C78.9898 35.2599 80.0898 36.4099 81.3298 36.1099L82.5098 35.8299C82.3498 35.2199 82.3498 34.5499 82.5398 33.8699L86.8598 18.8299C87.0798 18.0699 86.3898 17.3499 85.6198 17.5299L84.6798 17.7499L84.9798 16.6899L91.9698 15.0899L86.5198 34.0399C86.1698 35.2599 87.2598 36.4099 88.5098 36.1299L89.6998 35.8599C89.5398 35.2399 89.5298 34.5699 89.7298 33.8799L91.7998 26.7099C92.5598 24.0799 95.3098 22.5499 97.9498 23.2999C98.4098 22.8699 99.4698 22.0899 99.8998 23.6499C99.8998 23.6499 100.5 25.9999 103.15 25.2399C103.15 25.2399 104.3 24.9699 105.04 23.0099C105.1 22.8599 105.21 22.7299 105.37 22.6799ZM102.79 38.0499C103.67 38.0499 104.38 37.3399 104.38 36.4699C104.38 35.5899 103.67 34.8899 102.79 34.8899C101.91 34.8899 101.2 35.5999 101.2 36.4699C101.2 37.3399 101.91 38.0499 102.79 38.0499ZM102.79 34.3799C103.95 34.3799 104.88 35.3099 104.88 36.4699C104.88 37.6199 103.94 38.5599 102.79 38.5599C101.63 38.5599 100.7 37.6299 100.7 36.4699C100.7 35.3199 101.64 34.3799 102.79 34.3799ZM103.1 36.1999C103.12 36.1699 103.13 36.1299 103.13 36.0799C103.13 36.0299 103.12 35.9899 103.1 35.9599C103.08 35.9299 103.05 35.9099 103.02 35.8899C102.99 35.8699 102.95 35.8599 102.91 35.8599C102.87 35.8499 102.83 35.8499 102.79 35.8499H102.51V36.2999H102.77C102.81 36.2999 102.85 36.2999 102.89 36.2999C102.93 36.2999 102.97 36.2899 103.01 36.2799C103.05 36.2599 103.08 36.2299 103.1 36.1999ZM103.48 36.4399C103.41 36.5399 103.3 36.5999 103.16 36.6199L103.66 37.4499H103.14L102.73 36.6599H102.52V37.4499H102.09V35.4799H102.85C102.95 35.4799 103.05 35.4899 103.14 35.5099C103.23 35.5299 103.31 35.5599 103.38 35.6099C103.45 35.6599 103.5 35.7199 103.54 35.7899C103.58 35.8699 103.6 35.9599 103.6 36.0799C103.59 36.2199 103.55 36.3399 103.48 36.4399Z" fill="#D9D9D9"/>
</svg>
