<svg width="111" height="60" viewBox="0 0 111 60" fill="none" xmlns="http://www.w3.org/2000/svg">
<g clip-path="url(#clip0_5_157)">
<path d="M3.76977 30.0199C3.76977 31.4399 4.99977 32.6499 6.44977 32.6499C7.23977 32.6499 7.99977 32.2799 8.52977 31.6399L8.71977 31.4099L11.1698 33.0899L10.9498 33.3699C9.86977 34.6999 8.22977 35.4699 6.45977 35.4699C3.31977 35.4699 0.759766 33.0299 0.759766 30.0199C0.759766 27.0099 3.30977 24.5699 6.45977 24.5699C8.24977 24.5699 9.88977 25.3499 10.9798 26.6999L11.1998 26.9799L8.74977 28.6599L8.55977 28.4299C8.02977 27.7799 7.24977 27.3999 6.45977 27.3999C4.99977 27.3899 3.76977 28.5999 3.76977 30.0199ZM32.7798 24.8699H35.5198V35.1299H32.3898L28.2698 29.3799V35.1299H25.5298V24.8699H28.3398L32.7798 30.6699V24.8699ZM45.6598 24.8699H48.8098L45.4598 35.1299H40.9798L37.6298 24.8699H40.7798L43.0598 32.1599C43.0898 32.2599 43.1698 32.2699 43.2198 32.2699C43.2698 32.2699 43.3798 32.2599 43.3798 32.1599V32.1799L45.6598 24.8699ZM70.9998 35.1299H67.9198L66.1598 31.5499C66.0898 31.4499 65.9698 31.4299 65.8498 31.4299H64.6198V35.1299H61.8798V24.8699H67.1198C68.8998 24.8699 70.3898 26.1899 70.5098 27.8999C70.5998 29.1599 69.9698 30.3099 68.8798 30.9399L70.9998 35.1299ZM67.6198 28.1499C67.6198 27.8199 67.3498 27.5999 67.0098 27.5999H64.5898V28.6899H67.0098C67.3498 28.6999 67.6198 28.4799 67.6198 28.1499ZM84.0598 24.8699H92.2698V27.6099H86.7998V28.6999H91.7298V31.1599H86.7998V32.3899H92.2698V35.1299H84.0598V24.8699ZM81.7698 32.0399V32.0699C81.7698 34.2299 79.9598 35.5199 77.3898 35.5199C75.5098 35.5199 73.6298 34.9299 72.3298 33.7699L73.9898 31.8199C75.0298 32.6499 76.2398 33.0899 77.4698 33.0899C78.2598 33.0899 78.7698 32.8199 78.7698 32.3599V32.3299C78.7698 31.8899 78.3698 31.6499 76.9298 31.3199C74.6798 30.8099 72.8798 30.1699 72.8798 27.9899V27.9599C72.8798 25.9899 74.4098 24.5699 76.9498 24.5699C78.7498 24.5699 80.1298 25.0499 81.2798 25.9799L79.6398 27.9199C78.5898 27.2999 77.8198 26.9999 76.8898 26.9999C76.1798 26.9999 75.8898 27.2999 75.8898 27.6799V27.7099C75.8898 28.1899 76.3098 28.4099 77.7698 28.7399C80.1998 29.2699 81.7698 30.0499 81.7698 32.0399ZM23.3898 30.0199C23.3898 33.0199 20.8998 35.4699 17.8398 35.4699C14.7798 35.4699 12.2898 33.0299 12.2898 30.0199C12.2898 27.0199 14.7798 24.5699 17.8398 24.5699C20.8998 24.5799 23.3898 27.0199 23.3898 30.0199ZM20.4398 30.0199C20.4398 28.5799 19.2798 27.4199 17.8398 27.4199C16.3998 27.4199 15.2398 28.5799 15.2398 30.0199C15.2398 31.4599 16.3998 32.6199 17.8398 32.6199C19.2798 32.6199 20.4398 31.4599 20.4398 30.0199ZM50.9298 24.8699H59.1398V27.6099H53.6698V28.6999H58.5998V31.1599H53.6698V32.3899H59.1398V35.1299H50.9298V24.8699ZM99.8298 26.3099L98.1698 28.5899L95.4898 27.7199L97.1398 29.9999L95.4798 32.2799L98.1598 31.4099L99.8198 33.6899V30.8699L102.5 29.9999L99.8198 29.1299V26.3099H99.8298ZM105.72 29.9999L99.8298 36.4299H104.87L110.76 29.9999L104.87 23.5699H99.8298L105.72 29.9999Z" fill="#D9D9D9"/>
</g>
<defs>
<clipPath id="clip0_5_157">
<rect width="110" height="60" fill="white" transform="translate(0.759766)"/>
</clipPath>
</defs>
</svg>
