<svg width="111" height="60" viewBox="0 0 111 60" fill="none" xmlns="http://www.w3.org/2000/svg">
<g clip-path="url(#clip0_5_160)">
<path d="M80.9498 24.94C82.4998 24.94 83.9998 25.76 84.8298 26.9C84.8498 26.93 84.8698 26.96 84.8898 26.99C84.9198 27.04 84.9598 27.08 84.9898 27.13C85.5398 27.81 86.3898 28.25 87.3298 28.25C88.9898 28.25 90.3398 26.9 90.3398 25.24C90.3398 24.46 90.0398 23.75 89.5498 23.22C87.4798 20.67 85.0198 19.21 80.9498 19.21C74.4798 19.21 69.6198 23.68 69.6198 29.95C69.6198 36.32 74.4798 40.79 80.9498 40.79C85.0798 40.79 87.5198 39.33 89.5598 37.05C90.0198 36.53 90.2998 35.85 90.2998 35.1C90.2998 33.47 88.9798 32.15 87.3498 32.15C86.4598 32.15 85.6598 32.55 85.1198 33.17C84.1498 34.14 83.0298 35.1 80.9498 35.1C77.9898 35.1 76.3298 32.96 76.3298 29.94C76.3298 27.03 77.9798 24.94 80.9498 24.94ZM103.96 27.42C101.14 26.79 99.8298 26.64 99.8298 25.47C99.8298 24.65 100.56 24.26 102.06 24.26C103.62 24.26 105.08 24.99 106.05 25.81C106.51 26.24 107.12 26.51 107.8 26.51C109.22 26.51 110.37 25.36 110.37 23.94C110.37 23.18 110.03 22.51 109.51 22.04C107.81 20.31 105.39 19.21 102.01 19.21C97.5898 19.21 93.9898 21.11 93.9898 25.77C93.9898 30.1 97.1498 31.65 99.9698 32.38C103.33 33.26 104.64 33.26 104.64 34.37C104.64 35.25 103.96 35.63 101.82 35.63C100.15 35.63 98.5798 35.02 97.2798 33.98L97.3398 34.04C97.3398 34.04 97.3398 34.04 97.3298 34.03C96.2798 33.08 94.6698 33.12 93.6798 34.15C92.8798 34.99 92.7498 36.21 93.2698 37.18C93.2898 37.21 93.3098 37.25 93.3298 37.28C93.3798 37.36 93.4198 37.44 93.4798 37.51C93.5198 37.57 93.5698 37.61 93.6098 37.66C93.6598 37.72 93.6998 37.78 93.7598 37.83C93.7998 37.87 93.8498 37.9 93.8898 37.94C95.6898 39.56 98.2998 40.77 102.25 40.77C108.76 40.77 110.76 37.66 110.76 33.87C110.76 29.51 106.97 28.1 103.96 27.42ZM12.0898 24.94C13.6398 24.94 15.1398 25.76 15.9598 26.9C15.9798 26.93 15.9998 26.96 16.0198 26.99C16.0498 27.04 16.0898 27.08 16.1198 27.13C16.6698 27.81 17.5098 28.25 18.4598 28.25C20.1198 28.25 21.4698 26.9 21.4698 25.24C21.4698 24.46 21.1698 23.76 20.6798 23.22C18.6098 20.67 16.1398 19.21 12.0798 19.21C5.61977 19.21 0.759766 23.68 0.759766 29.95C0.759766 36.32 5.61977 40.79 12.0898 40.79C16.2198 40.79 18.6498 39.33 20.6898 37.05C21.1498 36.53 21.4298 35.85 21.4298 35.1C21.4298 33.47 20.1098 32.15 18.4898 32.15C17.5998 32.15 16.7998 32.55 16.2598 33.17C15.2898 34.14 14.1698 35.1 12.0898 35.1C9.11977 35.1 7.46977 32.96 7.46977 29.94C7.46977 27.03 9.11977 24.94 12.0898 24.94ZM54.7598 35.25C51.8398 35.25 50.0398 33.11 50.0398 30.05C50.0398 26.94 51.8398 24.85 54.7598 24.85C57.6798 24.85 59.4298 26.94 59.4298 30.05C59.4198 33.11 57.6698 35.25 54.7598 35.25ZM54.7598 19.21C48.3398 19.21 43.3298 23.73 43.3298 30.05C43.3298 36.32 48.3398 40.79 54.7598 40.79C61.1798 40.79 66.1398 36.32 66.1398 30.05C66.1298 23.73 61.1698 19.21 54.7598 19.21ZM40.0798 20.54C39.0698 20.01 38.3498 19.9 36.8498 20.02C34.1398 20.25 32.0398 22.15 31.6598 22.62V22.76C31.6598 22.72 31.6498 22.67 31.6498 22.63V22.62C31.5198 20.88 30.0798 19.51 28.2998 19.51C26.4698 19.51 24.9898 20.97 24.9398 22.79V37.46C24.9998 39.27 26.4798 40.71 28.2998 40.71C30.1398 40.71 31.6298 39.24 31.6598 37.4V33.41C31.6598 27.97 34.8098 26.6 36.5698 26.56C37.0398 26.55 38.2298 27.01 39.1698 26.84C40.9998 26.51 42.2098 24.75 41.8698 22.93C41.6698 21.86 40.9798 21 40.0798 20.54Z" fill="#D9D9D9"/>
<path d="M80.9498 24.94C82.4998 24.94 83.9998 25.76 84.8298 26.9C84.8498 26.93 84.8698 26.96 84.8898 26.99C84.9198 27.04 84.9598 27.08 84.9898 27.13C85.5398 27.81 86.3898 28.25 87.3298 28.25C88.9898 28.25 90.3398 26.9 90.3398 25.24C90.3398 24.46 90.0398 23.75 89.5498 23.22C87.4798 20.67 85.0198 19.21 80.9498 19.21C74.4798 19.21 69.6198 23.68 69.6198 29.95C69.6198 36.32 74.4798 40.79 80.9498 40.79C85.0798 40.79 87.5198 39.33 89.5598 37.05C90.0198 36.53 90.2998 35.85 90.2998 35.1C90.2998 33.47 88.9798 32.15 87.3498 32.15C86.4598 32.15 85.6598 32.55 85.1198 33.17C84.1498 34.14 83.0298 35.1 80.9498 35.1C77.9898 35.1 76.3298 32.96 76.3298 29.94C76.3298 27.03 77.9798 24.94 80.9498 24.94ZM103.96 27.42C101.14 26.79 99.8298 26.64 99.8298 25.47C99.8298 24.65 100.56 24.26 102.06 24.26C103.62 24.26 105.08 24.99 106.05 25.81C106.51 26.24 107.12 26.51 107.8 26.51C109.22 26.51 110.37 25.36 110.37 23.94C110.37 23.18 110.03 22.51 109.51 22.04C107.81 20.31 105.39 19.21 102.01 19.21C97.5898 19.21 93.9898 21.11 93.9898 25.77C93.9898 30.1 97.1498 31.65 99.9698 32.38C103.33 33.26 104.64 33.26 104.64 34.37C104.64 35.25 103.96 35.63 101.82 35.63C100.15 35.63 98.5798 35.02 97.2798 33.98L97.3398 34.04C97.3398 34.04 97.3398 34.04 97.3298 34.03C96.2798 33.08 94.6698 33.12 93.6798 34.15C92.8798 34.99 92.7498 36.21 93.2698 37.18C93.2898 37.21 93.3098 37.25 93.3298 37.28C93.3798 37.36 93.4198 37.44 93.4798 37.51C93.5198 37.57 93.5698 37.61 93.6098 37.66C93.6598 37.72 93.6998 37.78 93.7598 37.83C93.7998 37.87 93.8498 37.9 93.8898 37.94C95.6898 39.56 98.2998 40.77 102.25 40.77C108.76 40.77 110.76 37.66 110.76 33.87C110.76 29.51 106.97 28.1 103.96 27.42ZM12.0898 24.94C13.6398 24.94 15.1398 25.76 15.9598 26.9C15.9798 26.93 15.9998 26.96 16.0198 26.99C16.0498 27.04 16.0898 27.08 16.1198 27.13C16.6698 27.81 17.5098 28.25 18.4598 28.25C20.1198 28.25 21.4698 26.9 21.4698 25.24C21.4698 24.46 21.1698 23.76 20.6798 23.22C18.6098 20.67 16.1398 19.21 12.0798 19.21C5.61977 19.21 0.759766 23.68 0.759766 29.95C0.759766 36.32 5.61977 40.79 12.0898 40.79C16.2198 40.79 18.6498 39.33 20.6898 37.05C21.1498 36.53 21.4298 35.85 21.4298 35.1C21.4298 33.47 20.1098 32.15 18.4898 32.15C17.5998 32.15 16.7998 32.55 16.2598 33.17C15.2898 34.14 14.1698 35.1 12.0898 35.1C9.11977 35.1 7.46977 32.96 7.46977 29.94C7.46977 27.03 9.11977 24.94 12.0898 24.94ZM54.7598 35.25C51.8398 35.25 50.0398 33.11 50.0398 30.05C50.0398 26.94 51.8398 24.85 54.7598 24.85C57.6798 24.85 59.4298 26.94 59.4298 30.05C59.4198 33.11 57.6698 35.25 54.7598 35.25ZM54.7598 19.21C48.3398 19.21 43.3298 23.73 43.3298 30.05C43.3298 36.32 48.3398 40.79 54.7598 40.79C61.1798 40.79 66.1398 36.32 66.1398 30.05C66.1298 23.73 61.1698 19.21 54.7598 19.21ZM40.0798 20.54C39.0698 20.01 38.3498 19.9 36.8498 20.02C34.1398 20.25 32.0398 22.15 31.6598 22.62V22.76C31.6598 22.72 31.6498 22.67 31.6498 22.63V22.62C31.5198 20.88 30.0798 19.51 28.2998 19.51C26.4698 19.51 24.9898 20.97 24.9398 22.79V37.46C24.9998 39.27 26.4798 40.71 28.2998 40.71C30.1398 40.71 31.6298 39.24 31.6598 37.4V33.41C31.6598 27.97 34.8098 26.6 36.5698 26.56C37.0398 26.55 38.2298 27.01 39.1698 26.84C40.9998 26.51 42.2098 24.75 41.8698 22.93C41.6698 21.86 40.9798 21 40.0798 20.54Z" fill="#D9D9D9"/>
</g>
<defs>
<clipPath id="clip0_5_160">
<rect width="110" height="60" fill="white" transform="translate(0.759766)"/>
</clipPath>
</defs>
</svg>
