<svg width="112" height="62" viewBox="0 0 112 62" fill="none" xmlns="http://www.w3.org/2000/svg">
<g clip-path="url(#clip0_5_164)">
<path d="M69.49 40.4477C69.4194 40.3367 69.3588 40.2358 69.2176 40.2358C69.1167 40.3065 69.0057 40.4073 69.0461 40.5889C69.1167 40.7302 69.2781 40.7705 69.4194 40.7705C69.3891 40.6595 69.5606 40.5889 69.49 40.4477Z" fill="#D9D9D9"/>
<path d="M71.8103 40.6697C71.7901 40.6798 71.7094 40.6596 71.6791 40.6495C71.6287 40.6294 71.4774 40.5789 71.5379 40.478C71.4774 40.3469 71.5278 40.2662 71.5581 40.2359C71.6186 40.1754 71.7296 40.1552 71.8204 40.1956C71.9111 40.2359 71.9616 40.3166 71.9616 40.4074C71.9717 40.5184 71.9112 40.6193 71.8103 40.6697ZM71.094 41.0833C71.0839 41.0934 71.0234 41.0934 71.0133 41.0934C70.9729 41.1035 70.8821 41.1136 70.8216 40.9925C70.7813 40.9118 70.7913 40.8109 70.8519 40.7403C70.9023 40.6798 70.983 40.6495 71.0536 40.6697C71.0839 40.6798 71.1646 40.7101 71.1848 40.8311V40.8614C71.1949 40.9017 71.2151 41.0228 71.094 41.0833ZM70.4483 41.3961C70.4282 41.4465 70.3878 41.5373 70.297 41.5474C70.2365 41.5575 70.176 41.5272 70.1255 41.4768C70.1053 41.4566 70.0751 41.3557 70.0751 41.3154C70.0852 41.2548 70.1255 41.2044 70.2264 41.164C70.297 41.164 70.3878 41.164 70.4483 41.2952C70.4685 41.3154 70.4685 41.3759 70.4483 41.3961ZM69.4193 41.9005C69.379 41.84 69.3891 41.7391 69.4395 41.6886C69.4294 41.6987 69.4294 41.7189 69.4294 41.7391C69.4294 41.7794 69.4496 41.84 69.4698 41.8702C69.4698 41.8803 69.49 41.8803 69.5 41.8904C69.49 41.85 69.4698 41.7996 69.4698 41.7996C69.4799 41.8198 69.49 41.8198 69.49 41.8299C69.49 41.8299 69.49 41.8299 69.49 41.8198C69.49 41.7996 69.4899 41.7693 69.5101 41.7592C69.5505 41.7492 69.5606 41.7592 69.5707 41.7794C69.5807 41.7895 69.5807 41.7895 69.5908 41.8097C69.6009 41.8299 69.5908 41.8299 69.5908 41.84C69.5908 41.85 69.5807 41.85 69.5807 41.85C69.5807 41.8601 69.5807 41.8702 69.5908 41.8702C69.5606 41.8803 69.5404 41.8803 69.5303 41.8702C69.5202 41.8702 69.5202 41.8601 69.5202 41.85C69.5202 41.84 69.5101 41.84 69.5101 41.84C69.5101 41.84 69.5101 41.84 69.5101 41.8299C69.5101 41.8299 69.5101 41.8299 69.5101 41.84C69.5101 41.8601 69.5202 41.8803 69.5202 41.9005C69.5505 41.9408 69.6009 41.9812 69.6312 41.9711C69.5202 41.9812 69.4496 41.9408 69.4193 41.9005ZM68.5618 41.618C68.5215 41.6685 68.4609 41.7088 68.4206 41.6987C68.2894 41.7391 68.1583 41.6785 68.0978 41.5373C68.0877 41.5272 68.0877 41.4465 68.0877 41.4364C68.0776 41.3456 68.0776 41.2145 68.2592 41.1136C68.3802 41.1136 68.4912 41.164 68.5517 41.2347C68.582 41.275 68.6022 41.3255 68.6022 41.3759C68.6022 41.386 68.6022 41.4062 68.5921 41.4162C68.5921 41.4364 68.6022 41.4566 68.6022 41.4667C68.6123 41.5272 68.5921 41.5777 68.5618 41.618ZM67.7245 42.1023C67.6539 42.1426 67.5631 42.1325 67.4925 42.0922C67.4319 42.0518 67.4017 42.0014 67.4118 41.9711C67.3714 41.8299 67.442 41.7592 67.4723 41.729C67.5429 41.6785 67.6539 41.6785 67.7346 41.729C67.8052 41.7794 67.8355 41.85 67.8153 41.9308C67.8153 41.9207 67.8153 41.9106 67.8153 41.9106C67.8153 42.0821 67.7447 42.1123 67.7245 42.1023ZM66.978 42.5562C66.9174 42.5865 66.8468 42.5865 66.7863 42.5562C66.7257 42.5159 66.6955 42.4453 66.6955 42.3948C66.6652 42.304 66.7056 42.2233 66.7863 42.193C66.8771 42.1628 67.0082 42.193 67.0486 42.2838C67.0486 42.2939 67.0587 42.3545 67.0587 42.3645C67.0687 42.4049 67.0889 42.4957 66.978 42.5562ZM66.3424 42.869C66.3323 42.8992 66.3121 42.9396 66.292 42.9497L66.1104 43.0203C66.07 43.0304 66.07 43.0203 66.0397 42.99C65.9792 42.9295 65.9489 42.8589 65.959 42.7883C65.9691 42.7277 66.0095 42.6874 66.1104 42.647C66.181 42.647 66.2718 42.647 66.3323 42.7782C66.3424 42.7883 66.3525 42.8387 66.3424 42.869ZM65.5858 43.3633C65.5757 43.3936 65.5858 43.3835 65.5656 43.3936L65.4445 43.444C65.4042 43.4541 65.3537 43.4642 65.3235 43.4339C65.2024 43.3028 65.2629 43.2019 65.2831 43.1817C65.3336 43.1111 65.4445 43.0909 65.5252 43.1414C65.5757 43.1716 65.6362 43.2523 65.5858 43.3633ZM64.9906 42.7883C64.8695 42.7883 64.7585 42.7076 64.6879 42.5663C64.6375 42.3444 64.7283 42.1729 64.8897 42.1325C65.0107 42.0922 65.1116 42.1628 65.1621 42.2132C65.1822 42.2334 65.2529 42.2939 65.2529 42.3141C65.273 42.4049 65.2831 42.5764 65.1923 42.6975C65.1621 42.7479 65.0914 42.7883 64.9906 42.7883ZM64.3449 43.1615C64.2743 43.2019 64.1532 43.212 64.0019 43.0405C63.9615 42.9497 63.9716 42.8589 64.0322 42.7883C64.1028 42.7176 64.2339 42.6874 64.3348 42.7277C64.4155 42.758 64.466 42.8286 64.466 42.9194C64.466 42.9093 64.466 42.8992 64.4559 42.8791C64.466 42.8891 64.466 42.9093 64.466 42.9194C64.466 42.9194 64.466 42.9194 64.466 42.9093C64.4962 43.0304 64.4155 43.101 64.3449 43.1615ZM63.6286 43.5852C63.6084 43.6256 63.5883 43.6155 63.5479 43.6155C63.4773 43.6155 63.3462 43.6155 63.2957 43.4844C63.2554 43.4137 63.2755 43.3229 63.3361 43.2624C63.4067 43.1817 63.5277 43.1514 63.6185 43.1918C63.6892 43.2221 63.7295 43.2826 63.7295 43.3734C63.7194 43.3835 63.6286 43.5852 63.6286 43.5852ZM62.8014 44.0695C62.6702 44.0695 62.6097 43.9787 62.5794 43.9081C62.529 43.787 62.5794 43.7063 62.6501 43.6659C62.7409 43.6256 62.8821 43.6458 62.9325 43.7467C62.9426 43.7567 62.9426 43.8173 62.9426 43.8274C62.9426 43.8879 62.9628 43.9989 62.8014 44.0695ZM62.0347 43.2019C62.0246 43.1918 62.0246 43.101 62.0246 43.0909C62.0246 42.9598 62.0145 42.758 62.2364 42.7076C62.3777 42.7076 62.4886 42.7479 62.5593 42.8286C62.5895 42.869 62.6198 42.9194 62.6198 43.0001C62.6198 43.0203 62.6198 43.0405 62.6097 43.0506C62.6097 43.0707 62.6198 43.0909 62.6198 43.1212C62.6198 43.2523 62.5492 43.3532 62.4079 43.3936C62.2364 43.444 62.0952 43.3129 62.0347 43.2019ZM62.0851 44.3015C62.0851 44.3318 62.075 44.352 62.0548 44.362C62.0347 44.3721 62.0246 44.3721 62.0145 44.362C62.0145 44.362 62.0145 44.362 62.0044 44.362C62.0044 44.362 62.0044 44.352 61.9943 44.352C61.9943 44.3419 61.9842 44.3419 61.9842 44.3318C61.9842 44.3217 61.9741 44.3217 61.9741 44.3217C61.9741 44.3217 61.9741 44.3116 61.9641 44.3116C61.9641 44.3318 61.9439 44.3318 61.9439 44.352C61.9439 44.352 61.9439 44.3015 61.954 44.2712C61.954 44.2712 61.9641 44.2914 61.9741 44.3015C61.9741 44.2914 61.9842 44.2813 61.9842 44.2612C61.9842 44.2511 61.9842 44.241 61.9842 44.2309C61.9943 44.2309 61.9943 44.2309 62.0044 44.2309L62.0145 44.2208C62.075 44.2309 62.0851 44.2511 62.0851 44.3015C62.0851 44.2914 62.0851 44.2511 62.0851 44.2511C62.0851 44.2612 62.0851 44.2813 62.0851 44.3015ZM61.8934 44.2914C61.8934 44.2813 61.8833 44.2712 61.8833 44.2612C61.8833 44.2511 61.8833 44.2511 61.8833 44.241C61.8833 44.2511 61.8934 44.2712 61.8934 44.2914C61.9035 44.352 61.9338 44.4327 61.954 44.4427C61.8934 44.4024 61.8934 44.3419 61.8934 44.2914ZM61.7623 43.7467C61.732 43.7668 61.6715 43.7971 61.6412 43.7668C61.5605 43.787 61.4899 43.7769 61.4294 43.7366C61.3688 43.6962 61.3386 43.6256 61.3487 43.5953C61.2982 43.4339 61.3588 43.3129 61.5 43.2624C61.6311 43.1918 61.7421 43.3129 61.8228 43.3835C61.843 43.4036 61.8531 43.4339 61.8531 43.4541C61.8531 43.555 61.8531 43.6861 61.7623 43.7467ZM61.046 44.0997C61.0359 44.1199 60.9653 44.1704 60.9451 44.1804C60.8846 44.2107 60.8241 44.2107 60.7635 44.1704C60.703 44.13 60.6627 44.0594 60.6627 43.9989C60.6425 43.9182 60.6727 43.8475 60.7333 43.7971C60.7938 43.7466 60.8947 43.7366 60.9653 43.7668C61.0258 43.7971 61.0662 43.8576 61.0662 43.9383C61.0662 43.9484 61.0763 43.9686 61.0763 43.9787C61.0763 44.0291 61.0662 44.0695 61.046 44.0997ZM60.1482 44.473C60.1179 44.5436 60.0775 44.4327 60.0775 44.4024C60.1482 44.362 60.1784 44.4024 60.1482 44.473ZM59.9767 44.4024C59.9767 44.4528 60.0473 44.584 60.0977 44.5941C59.9767 44.5638 59.9767 44.4024 59.9767 44.4024ZM59.906 43.8374C59.8556 43.898 59.785 43.9383 59.7446 43.9282C59.674 43.9484 59.5933 43.9383 59.5328 43.8879C59.4521 43.8374 59.4117 43.7467 59.4218 43.6861C59.3915 43.5953 59.4218 43.5045 59.4924 43.444C59.5731 43.3633 59.7144 43.3431 59.8152 43.3936C59.906 43.4339 59.9565 43.5146 59.9565 43.6256C59.9565 43.6458 59.9666 43.6659 59.9666 43.676C59.9565 43.7366 59.9363 43.7971 59.906 43.8374ZM59.1393 44.2511C59.099 44.3116 59.0283 44.352 58.9577 44.352C58.9275 44.352 58.8871 44.3318 58.8669 44.3116C58.8669 44.3116 58.7358 44.1905 58.7358 44.1804C58.7055 44.0997 58.7156 44.0089 58.7761 43.9585C58.8468 43.898 58.9476 43.8778 59.0384 43.9182C59.1191 43.9484 59.1696 44.0291 59.1696 44.1098C59.1696 44.0897 59.1696 44.0796 59.1595 44.0695C59.1696 44.0796 59.1696 44.0997 59.1696 44.1098C59.1696 44.1199 59.1797 44.13 59.1797 44.1502C59.1696 44.1805 59.1595 44.2208 59.1393 44.2511ZM58.413 44.5638L58.3222 44.7353C58.302 44.7656 58.2818 44.7757 58.2415 44.7757C58.07 44.7757 58.0397 44.695 58.0397 44.6344C58.0397 44.584 58.0599 44.4528 58.1103 44.4427L58.2616 44.4125L58.4029 44.5134C58.4432 44.5335 58.4331 44.5134 58.413 44.5638ZM57.9691 43.9989C57.9489 44.0291 57.8581 44.0493 57.8278 44.0594C57.7471 44.0594 57.616 44.0695 57.5252 43.9383C57.5151 43.9182 57.5151 43.8778 57.5151 43.8576L57.5252 43.7769C57.5252 43.6962 57.5252 43.555 57.6866 43.5146C57.7774 43.4844 57.8783 43.5045 57.959 43.5651C58.0195 43.6054 58.0498 43.676 58.0599 43.7366C58.0599 43.7265 58.0599 43.7265 58.0599 43.7265C58.0599 43.7366 58.0599 43.7467 58.0599 43.7567C58.0599 43.7567 58.0599 43.7467 58.0599 43.7366C58.0901 43.8576 58.0397 43.9282 58.0094 43.9686L57.9691 43.9989ZM57.5555 45.1691C57.5353 45.1893 57.4647 45.2095 57.4344 45.1994C57.3739 45.1792 57.3234 45.1288 57.3032 45.0682C57.2932 45.0178 57.3335 44.8967 57.394 44.8765C57.4647 44.8564 57.5151 44.8564 57.5655 44.8866C57.6362 44.9371 57.6362 45.0178 57.6362 45.0783C57.6261 45.1086 57.5756 45.1489 57.5555 45.1691ZM57.2326 44.362C57.1923 44.4226 57.1116 44.473 57.051 44.473C56.8997 44.473 56.8493 44.362 56.819 44.2914C56.7988 44.2208 56.8291 44.1401 56.8896 44.0997C56.9602 44.0392 57.0712 44.0291 57.1519 44.0695C57.2225 44.0997 57.2528 44.1603 57.2528 44.241C57.2629 44.2511 57.2427 44.3419 57.2326 44.362ZM52.5718 50.2234L52.5819 50.1931C52.5718 50.2334 52.5012 50.2536 52.4709 50.2637C52.4306 50.2738 52.36 50.2536 52.3297 50.2234C52.2793 50.1527 52.2994 50.0619 52.3095 50.0216C52.3196 49.9913 52.3398 49.9409 52.37 49.9207C52.4104 49.9005 52.5113 49.8703 52.5819 50.0014C52.5718 49.9913 52.592 50.0216 52.592 50.0115C52.6223 50.0519 52.6626 50.1225 52.5718 50.2234ZM51.4318 49.951C51.4318 49.951 51.2906 50.0014 51.2603 50.0115C51.22 50.0216 51.1191 50.0317 51.0586 49.9005C51.0081 49.7492 51.0989 49.5878 51.2603 49.5273C51.341 49.5273 51.4924 49.5979 51.4924 49.7391L51.4318 49.951ZM50.312 49.4768C50.312 49.5575 50.3019 49.6483 50.1405 49.7189C50.08 49.7189 49.9085 49.7189 49.9186 49.5777C49.8883 49.4869 49.9085 49.386 49.9791 49.3255C50.0497 49.265 50.1607 49.2549 50.2414 49.2952C50.2919 49.3255 50.3221 49.386 50.3221 49.4466C50.312 49.4566 50.312 49.4667 50.312 49.4768ZM49.0308 49.3154C49.0207 49.3558 48.9602 49.3457 48.9198 49.3558C48.8795 49.3558 48.819 49.3053 48.8089 49.2751C48.7685 49.1944 48.7887 49.0733 48.8795 49.0228C48.9198 49.0027 48.9905 49.0329 49.0207 49.0632C49.051 49.0935 49.0913 49.1641 49.0712 49.2044L49.0308 49.3154ZM47.5276 48.1855C47.5276 48.1956 47.5176 48.2057 47.5075 48.2158C47.5176 48.2057 47.5075 48.2057 47.5176 48.1956C47.457 48.3066 47.3662 48.3167 47.2553 48.3066C47.1342 48.246 47.1241 48.0846 47.1846 47.9636C47.2149 47.893 47.2855 47.8526 47.3561 47.8526C47.4369 47.8526 47.5276 47.9131 47.5579 48.0039C47.568 48.0342 47.5781 48.0544 47.5781 48.0846C47.5781 48.125 47.5579 48.1653 47.5276 48.2057C47.5176 48.1956 47.5276 48.1956 47.5276 48.1855ZM43.9261 45.3003C43.8757 45.3608 43.8051 45.4011 43.7344 45.4011C43.7344 45.4011 43.5226 45.3003 43.5024 45.2599C43.452 45.1086 43.5428 44.9472 43.7042 44.8866C43.8353 44.8866 43.9766 44.9673 43.9766 45.0985C43.9766 45.1187 43.9866 45.1388 43.9866 45.1489C43.9766 45.1994 43.9564 45.2599 43.9261 45.3003ZM56.4457 44.8362C56.4256 44.8665 56.3348 44.8866 56.3045 44.8866C56.2036 44.8866 56.1633 44.8261 56.1431 44.7958C56.133 44.7757 56.1027 44.7353 56.1027 44.705C56.1027 44.6344 56.133 44.584 56.1935 44.5436C56.2541 44.5033 56.3449 44.5033 56.4054 44.5436C56.4155 44.5537 56.4457 44.5941 56.4457 44.5941C56.5063 44.6748 56.4962 44.7757 56.4457 44.8362ZM55.9312 44.1804C55.8001 44.2208 55.6689 44.1603 55.5983 43.9787C55.5983 43.7971 55.6891 43.7164 55.8001 43.6659L56.0725 43.7467L56.133 43.9081C56.1431 44.0291 56.0321 44.13 55.9312 44.1804ZM55.7093 45.27C55.6689 45.3406 55.5882 45.3406 55.5176 45.3406C55.4873 45.3406 55.4571 45.3305 55.4369 45.3103C55.3764 45.2498 55.3663 45.159 55.4066 45.0884C55.447 45.0178 55.5277 44.9875 55.6084 45.0077C55.6387 45.0178 55.679 45.0985 55.6992 45.1288C55.7093 45.1489 55.7295 45.2397 55.7093 45.27ZM55.3562 44.352L55.225 44.5941C55.2049 44.6243 55.1847 44.6243 55.1544 44.6243C55.0233 44.6243 54.9224 44.5335 54.9224 44.4427C54.8619 44.2511 55.0132 44.1805 55.0737 44.1502C55.1141 44.13 55.1847 44.1502 55.215 44.1804L55.3461 44.3015C55.3764 44.3419 55.3764 44.3116 55.3562 44.352ZM54.4886 45.0077C54.4583 45.0279 54.4281 45.0581 54.3978 45.048C54.3978 45.048 54.2263 44.9472 54.2061 44.9169C54.1658 44.8261 54.196 44.7555 54.2465 44.7151C54.3171 44.6546 54.4281 44.6546 54.5088 44.705C54.5289 44.7151 54.5592 44.7857 54.5693 44.8059C54.5794 44.8463 54.6097 44.9371 54.4886 45.0077ZM53.9943 44.3419C53.8631 44.3419 53.7219 44.2612 53.732 44.13C53.7017 44.0291 53.732 43.9282 53.8127 43.8677C53.8934 43.7971 54.0144 43.787 54.1052 43.8374C54.1759 43.8778 54.2061 43.9484 54.2061 44.0392C54.2061 44.0493 54.2061 44.0594 54.2061 44.0695C54.196 44.1804 54.1355 44.2813 53.9943 44.3419ZM53.7723 48.468L53.732 48.6698C53.732 48.6698 53.5504 48.8211 53.5302 48.8211L53.2276 48.7404C53.2276 48.7404 53.1569 48.5487 53.1569 48.5689C53.1368 48.4781 53.1569 48.3873 53.2175 48.3167C53.2679 48.2561 53.3486 48.2158 53.4293 48.2158C53.5907 48.2158 53.732 48.3167 53.7723 48.468C53.7723 48.4579 53.7622 48.468 53.7723 48.468C53.7723 48.4781 53.7723 48.4478 53.7723 48.468ZM53.046 44.6042C53.0157 44.473 53.0863 44.3721 53.167 44.3419C53.2376 44.3116 53.3385 44.3519 53.3991 44.4629C53.3991 44.4629 53.3991 44.4528 53.389 44.4427C53.3991 44.4528 53.3991 44.4629 53.4091 44.473C53.4091 44.473 53.3991 44.473 53.3991 44.4629C53.4192 44.4831 53.4293 44.5033 53.4293 44.5436C53.4293 44.584 53.4091 44.6344 53.3486 44.695C53.3385 44.705 53.2679 44.7252 53.2477 44.7252C53.2074 44.7252 53.1065 44.7454 53.046 44.6042ZM52.8442 44.0089C52.7131 44.0493 52.5819 43.9888 52.5113 43.8072C52.5113 43.6861 52.5113 43.4944 52.7131 43.4238C52.7938 43.4238 52.9552 43.4238 53.0359 43.5247C53.0561 43.555 53.0863 43.5953 53.0863 43.6659C53.0863 43.676 53.0863 43.6962 53.0863 43.7063C53.0863 43.7265 53.0964 43.7366 53.0964 43.7567C53.0964 43.8173 53.0762 43.8677 53.046 43.9182C52.9854 43.9787 52.9047 44.0089 52.8442 44.0089ZM52.5214 45.1388C52.481 45.1489 52.36 45.1187 52.3398 45.0884C52.2793 44.9976 52.3095 44.927 52.3297 44.9068C52.36 44.8665 52.4709 44.8765 52.5214 44.8967C52.5718 44.9169 52.6626 44.9976 52.6424 45.048C52.6323 45.0884 52.5819 45.1288 52.5214 45.1388ZM52.5315 48.4377C52.4709 48.4983 52.3902 48.5285 52.2389 48.4882C52.1582 48.468 51.9363 48.4176 51.9766 48.2057C51.9766 48.0846 52.0573 47.903 52.2187 47.8627C52.3701 47.8223 52.5214 47.9232 52.6021 48.0846C52.6021 48.0947 52.6122 48.0947 52.6122 48.1048C52.6323 48.2057 52.6122 48.3469 52.5315 48.4377ZM51.8959 47.7618L51.6336 47.671L51.563 47.4894C51.563 47.2776 51.674 47.1464 51.8051 47.1464L52.017 47.1666L52.1784 47.3583C52.1784 47.3583 52.1784 47.3583 52.1784 47.3684C52.1885 47.3986 52.1885 47.4188 52.1885 47.439C52.1683 47.5903 52.0371 47.6811 51.8959 47.7618ZM51.1897 46.7227C51.1695 46.6218 51.2099 46.531 51.2906 46.4705C51.3713 46.4201 51.4722 46.41 51.5529 46.4503C51.6235 46.4907 51.6639 46.5613 51.6639 46.642C51.6639 46.8438 51.5529 46.9144 51.4621 46.9144C51.341 46.9144 51.2502 46.8539 51.1897 46.7227ZM51.1393 46.0165C51.1191 46.0367 51.0888 46.067 51.0283 46.067C51.0081 46.067 50.9375 46.0771 50.9173 46.0569C50.8366 45.9963 50.8265 45.8652 50.8669 45.7744C50.8871 45.7341 50.9779 45.7341 51.0283 45.7441C51.0687 45.7542 51.1594 45.8148 51.1594 45.8551V45.8652C51.1695 45.9056 51.1594 45.9963 51.1393 46.0165ZM51.0485 47.0859L50.9274 47.3885C50.9274 47.3885 50.7458 47.4692 50.766 47.4692C50.655 47.4894 50.5441 47.4692 50.4634 47.3986C50.3826 47.328 50.3423 47.2271 50.3423 47.1162C50.3423 46.9648 50.4432 46.8236 50.5945 46.7732C50.8064 46.7328 50.998 46.8539 51.0485 47.0657C51.0485 47.0859 51.0586 47.0657 51.0485 47.0859ZM50.2414 46.6218L50.0699 46.5613C50.0296 46.5512 49.969 46.4907 49.969 46.4503C49.969 46.2486 50.0396 46.1174 50.1708 46.0771C50.2515 46.0468 50.3423 46.067 50.4028 46.1174C50.4634 46.1679 50.5037 46.2385 50.5037 46.3192V46.3293C50.5037 46.3494 50.5138 46.3696 50.5138 46.3797C50.5138 46.4503 50.4936 46.5209 50.4432 46.5714C50.3826 46.6218 50.3019 46.642 50.2414 46.6218ZM49.6058 45.6735C49.5655 45.5525 49.5958 45.4516 49.7067 45.4011C49.8076 45.3507 49.9589 45.3709 50.0296 45.4818C50.0396 45.502 50.0497 45.5222 50.0497 45.5323C50.0497 45.7139 49.9791 45.8047 49.8883 45.7946C49.7572 45.8652 49.6765 45.7542 49.6058 45.6735ZM49.4343 45.038C49.3234 45.038 49.2225 44.9774 49.162 44.8261C49.162 44.705 49.2427 44.6142 49.3637 44.5941C49.4747 44.5739 49.5655 44.6344 49.5958 44.7252C49.5958 44.7353 49.5958 44.7454 49.5958 44.7555C49.6058 44.8362 49.6058 44.9572 49.4343 45.038ZM48.7382 44.2208C48.7181 44.2006 48.6777 44.1502 48.6777 44.0796C48.6777 44.0594 48.6878 44.0291 48.6979 43.9989C48.6878 43.9484 48.6777 43.9081 48.6777 43.9081C48.6777 43.9081 48.8391 43.7567 48.8694 43.7467C48.9602 43.7164 49.0712 43.7265 49.1418 43.7769C49.2023 43.8274 49.2427 43.898 49.2427 43.9787C49.2427 43.9989 49.2528 44.019 49.2528 44.0291C49.2528 44.13 49.1922 44.2208 49.0712 44.2813C48.9703 44.3217 48.819 44.3116 48.7382 44.2208ZM48.7181 45.5525L48.5062 45.5323C48.5062 45.5323 48.3448 45.3406 48.3448 45.3305C48.3045 45.159 48.3751 45.0279 48.5466 44.9673C48.708 44.9169 48.819 45.0279 48.8896 45.0985C48.9097 45.1187 48.9198 45.1388 48.9198 45.1691C48.9198 45.2801 48.9198 45.502 48.7181 45.5525ZM48.2137 44.816C48.0623 44.816 47.911 44.6647 47.911 44.5235C47.8606 44.2914 48.0422 44.2309 48.1834 44.1905C48.2742 44.1905 48.5163 44.1905 48.5163 44.4629C48.5163 44.473 48.5264 44.4528 48.5163 44.4629L48.4053 44.7252L48.2137 44.816ZM47.4167 43.787C47.4167 43.7668 47.4268 43.676 47.4369 43.6559C47.457 43.5449 47.4974 43.3835 47.6689 43.3431L48.0119 43.4036L48.1632 43.6357C48.1733 43.6559 48.1632 43.6357 48.1632 43.6559C48.1632 43.7668 48.1229 43.9182 48.022 44.0089C47.9514 44.0695 47.8707 44.0897 47.7899 44.0695C47.5882 44.0695 47.457 43.9182 47.4167 43.787ZM49.6159 43.1918C49.6361 43.1817 49.6966 43.1918 49.7269 43.1918C49.8379 43.2321 49.9791 43.2826 50.0296 43.4238C50.0296 43.4137 50.0396 43.444 50.0296 43.4238C50.0296 43.4339 50.0195 43.6962 50.0195 43.6962C50.0195 43.6962 49.7975 43.898 49.7572 43.9081C49.5453 43.9081 49.3839 43.7769 49.3839 43.5953C49.3839 43.4137 49.4646 43.2624 49.6159 43.1918ZM50.2313 44.1098C50.312 44.1401 50.3524 44.2208 50.3524 44.3015C50.3524 44.2914 50.3524 44.2712 50.3423 44.2612C50.4028 44.3923 50.3221 44.4831 50.2515 44.5537C50.2313 44.5739 50.2111 44.584 50.1809 44.584C50.0699 44.584 49.9791 44.5436 49.9388 44.4831C49.8984 44.4327 49.8984 44.3721 49.9186 44.3721C49.8883 44.2914 49.8984 44.2006 49.9589 44.1502C50.0396 44.0897 50.1506 44.0695 50.2313 44.1098ZM50.423 45.038C50.4634 44.9673 50.5441 44.9371 50.6248 44.9573C50.655 44.9673 50.7055 45.048 50.7156 45.0783C50.7156 45.1086 50.7357 45.1994 50.7156 45.2195C50.6752 45.2902 50.5844 45.2902 50.5239 45.2902C50.4936 45.2902 50.4734 45.2801 50.4533 45.2599C50.3927 45.1994 50.3726 45.1086 50.423 45.038ZM50.6853 43.6659C50.766 43.5953 50.8871 43.5651 50.9779 43.6054C51.0687 43.6357 51.1292 43.7164 51.1393 43.8173C51.1393 43.8072 51.1393 43.8072 51.1393 43.8072C51.1393 43.8173 51.1393 43.8173 51.1393 43.8274C51.1494 43.8576 51.1494 43.8879 51.1494 43.9182C51.1494 44.0291 51.0888 44.1098 51.0081 44.1401C50.9879 44.1502 50.9173 44.1603 50.8972 44.1502L50.6449 44.0897C50.6449 44.0897 50.5844 43.9383 50.5945 43.9585C50.5743 43.8374 50.6046 43.7366 50.6853 43.6659ZM51.3209 44.5134C51.3915 44.5235 51.452 44.5638 51.4722 44.6344C51.4823 44.6647 51.4823 44.7454 51.4621 44.7656C51.4217 44.8362 51.3309 44.8362 51.2704 44.8362C51.2402 44.8362 51.2099 44.8261 51.1897 44.8059C51.1292 44.7454 51.1191 44.6748 51.1494 44.6042C51.1796 44.5739 51.2805 44.5134 51.3209 44.5134ZM51.9665 43.9989C52.0876 43.9484 52.1985 43.9989 52.249 44.1098V44.1199C52.2793 44.2006 52.2591 44.2813 52.2187 44.3419C52.1784 44.3923 52.1178 44.4327 52.0472 44.4327C52.027 44.4327 51.9766 44.4125 51.9564 44.3923C51.9564 44.3923 51.8253 44.2712 51.8152 44.2511C51.795 44.1502 51.8555 44.0392 51.9665 43.9989ZM73.8885 39.4389C73.717 39.3986 73.4446 39.2271 73.6564 39.0152C73.6262 38.7731 73.3235 38.6621 73.2125 38.9043C73.0007 39.3582 73.6867 39.1161 73.5455 39.5398C73.5051 39.7113 73.3033 39.8223 73.1318 39.8223C72.7586 39.7819 73.0713 39.4389 72.8695 39.2977C72.7384 39.1565 72.5265 39.1867 72.4257 39.328C72.1533 39.7113 72.7586 39.6104 72.688 39.9635C72.688 40.0644 72.5871 40.2056 72.4458 40.1754C72.3147 40.135 72.1734 39.9635 72.2441 39.792C72.1432 39.6508 72.012 39.6104 71.8708 39.6104C71.6993 39.6811 71.5581 39.8526 71.5278 39.9938C71.4269 40.0947 71.2857 40.0241 71.1848 39.9938C70.7409 40.0241 70.8014 40.7605 70.297 40.4377C70.1558 40.5386 70.1255 40.6798 70.0246 40.7908C69.8531 40.9623 69.6211 40.821 69.4092 40.7807C69.3689 40.9522 69.3689 41.1338 69.1974 41.2347C68.7939 41.3759 68.8241 40.9522 68.693 40.7403C68.3601 40.4579 68.2793 41.0228 68.0776 41.1237C67.4319 40.7 67.5933 41.8198 66.988 41.497C66.645 41.4566 66.7459 42.0215 66.3727 41.9509C66.2415 41.8803 65.9691 41.7693 66.1003 41.5575C66.07 41.4566 65.9691 41.3053 65.8279 41.3053C65.2529 41.5777 66.1003 41.729 65.9893 42.1123C65.9187 42.2536 65.7472 42.3242 65.616 42.3141C65.4143 42.2435 65.3436 42.0316 65.4143 41.8601C65.3134 41.7492 65.2125 41.6785 65.041 41.6785C64.9704 41.7492 64.8392 41.8198 64.8291 41.961C64.7585 42.2031 64.5265 42.1023 64.355 42.0619C64.2541 42.0619 64.1129 42.1628 64.0826 42.2738C64.0422 42.4553 63.8405 42.5562 63.669 42.5159C63.1545 42.5461 63.669 42.0619 63.3361 41.9207C63.2352 41.7794 63.0637 41.8803 62.9931 41.9913C62.7509 42.4856 63.5681 42.2132 63.326 42.6975C63.2554 42.8387 63.1242 42.9396 62.9527 42.9093C62.7812 42.869 62.6803 42.6571 62.7509 42.4856C62.6803 42.3847 62.5794 42.2334 62.4079 42.2738C62.1658 42.3444 62.1658 42.6268 62.0347 42.758C61.5303 42.2939 61.5202 43.1716 61.0763 43.101C60.8745 43.101 60.6324 42.9194 60.8039 42.7076C60.7736 42.5663 60.6324 42.4654 60.5012 42.4553C59.8859 42.8387 60.8342 42.8791 60.6627 43.2321C60.6223 43.3734 60.4912 43.5449 60.2894 43.4743C60.0876 43.4339 60.0876 43.1918 60.128 43.0203C60.0271 42.8791 59.8959 42.8387 59.7547 42.8387C59.5832 42.869 59.5126 43.0808 59.442 43.2221C59.2705 43.3229 59.0384 43.1817 58.8669 43.212C58.7661 43.3835 58.6551 43.6659 58.423 43.6256C58.2213 43.555 58.191 43.3431 58.191 43.1313C58.0901 43.0203 57.9893 42.9194 57.8177 42.9497C57.6462 43.0506 57.616 43.2321 57.505 43.3633C57.2629 43.4339 57.0611 43.3633 56.8896 43.2221C56.9602 43.0506 57.0309 42.8387 56.8291 42.7277C56.7282 42.6571 56.587 42.6874 56.5264 42.8286C56.2541 43.2523 57.0006 43.0808 56.8594 43.4944C56.7887 43.6357 56.6576 43.7769 56.4861 43.7366C56.3146 43.6256 56.2541 43.4541 56.3247 43.2826C55.9211 42.6168 55.7396 43.5953 55.3058 43.4844C55.2049 43.444 55.0031 43.3431 55.104 43.1615C55.0737 42.99 54.9728 42.8084 54.8013 42.8084C54.5996 42.8387 54.5592 43.0506 54.529 43.2221C54.6298 43.333 54.8013 43.333 54.9022 43.4339C54.9728 43.5752 54.9325 43.7164 54.7912 43.8173C54.075 44.019 54.8013 43.1111 54.2162 43.1817C53.7118 42.8992 53.9035 43.7366 53.3991 43.5953C52.9955 43.4844 53.4091 43.0707 53.0661 42.9295C52.5617 42.6773 52.7534 43.5247 52.249 43.3129C51.7345 43.3835 52.1885 42.8185 51.8455 42.6773C51.7143 42.6067 51.5731 42.6773 51.5025 42.7782C51.22 43.3028 52.0472 42.99 51.8656 43.4844C51.8354 43.6256 51.6639 43.6962 51.5226 43.6861C51.1796 43.6458 51.3612 43.2321 51.2603 43.0909C50.7559 42.6268 50.8467 43.5449 50.3423 43.4339C50.1708 43.3936 50.0396 43.1514 50.1405 42.9799C49.7773 42.3141 49.5554 43.2523 49.1821 43.1514C48.9804 43.1111 48.7786 42.9699 48.9097 42.7277C48.8795 42.5865 48.7382 42.4856 48.5768 42.4755C47.8908 42.9598 49.051 42.869 48.8089 43.3229C48.7382 43.4944 48.5667 43.6054 48.3952 43.5651C48.022 43.4541 48.365 43.0707 48.1329 42.8992C47.5882 42.5461 47.7496 43.4238 47.3158 43.2826C46.9123 43.0304 46.9425 43.5953 46.771 43.7668C46.6298 43.7971 46.5289 43.7265 46.3978 43.7265C46.2565 43.7567 46.196 43.898 46.1556 44.0392C46.1859 44.2107 46.3574 44.3217 46.4886 44.352C46.5894 44.352 46.7307 44.2107 46.7307 44.1098C46.7307 43.9383 46.9022 43.7971 47.1039 43.8677C47.2351 43.9383 47.336 44.1199 47.3057 44.2914C47.2654 44.5739 46.9324 44.5033 46.7609 44.4629C46.6601 44.5638 46.5592 44.6748 46.5894 44.8463C46.6601 44.9875 46.7609 45.0985 46.9224 45.0985C47.1645 45.0985 47.1241 44.7857 47.2654 44.6445C47.4369 44.6142 47.6084 44.6445 47.7092 44.8261C47.7799 44.9673 47.7395 45.1792 47.6386 45.2801C47.5075 45.3103 47.3965 45.2397 47.2654 45.2397C47.1645 45.27 47.0636 45.381 47.0939 45.4818C47.1645 45.5525 47.225 45.6533 47.3259 45.7341C47.5983 45.9459 47.5983 45.5222 47.6991 45.391C47.8707 45.391 48.0422 45.3911 48.143 45.5726C48.2439 45.6735 48.143 45.8551 48.143 45.9963C48.2439 46.2385 48.4961 46.1477 48.6676 46.2687C48.6575 46.2486 48.6575 46.2385 48.6575 46.2284L48.6979 46.1275C48.7282 45.956 48.7685 45.7038 49.0207 45.7139C49.2931 45.7139 49.394 45.8753 49.394 46.0266C49.394 46.0165 49.394 46.0165 49.394 46.0064C49.394 46.0165 49.394 46.0266 49.394 46.0266C49.4041 46.0569 49.4041 46.0871 49.4041 46.1174C49.4041 46.1981 49.3839 46.2687 49.3435 46.3192C49.3032 46.3797 49.2326 46.41 49.1519 46.41L48.819 46.3494C48.7887 46.3394 48.7382 46.3091 48.708 46.2788C48.7282 46.4201 48.5365 46.5815 48.708 46.7227C49.2124 47.3986 49.0813 46.2687 49.626 46.4806C49.7975 46.5209 49.8278 46.7328 49.8278 46.8639C49.8278 47.1767 49.4848 47.1061 49.3133 47.0657C49.5151 47.5903 49.7572 46.9648 50.1304 47.2473C50.2616 47.3179 50.3322 47.4995 50.2616 47.6307C50.3927 47.8123 50.5642 47.8425 50.7357 47.9131C50.766 47.8829 50.8366 47.8425 50.8366 47.7719C50.8669 47.6307 51.0384 47.5298 51.2099 47.5298C51.341 47.6004 51.4419 47.7416 51.4117 47.9131C51.1695 48.4075 51.8858 48.1956 52.0472 48.5184C52.0775 49.1136 52.4911 48.4882 52.7635 48.5991C53.0056 48.5689 53.0661 48.8513 53.167 48.9926C53.3284 49.5172 53.6412 48.8917 53.8833 48.9321C54.2263 48.9018 54.2162 49.2851 54.418 49.4667C54.6904 49.5777 54.8316 49.1843 55.104 49.265C55.3764 49.3053 55.4066 49.5878 55.5378 49.7593C55.7396 49.7593 55.8808 49.729 55.9817 49.5878C56.2238 49.5575 56.4558 49.5878 56.6273 49.729C56.6576 49.9005 56.5264 50.0418 56.4861 50.1527C56.2843 50.2536 56.0826 50.1124 55.8707 50.1124C55.7698 50.2536 55.6588 50.526 55.4268 50.4251C55.1847 50.3545 55.3663 50.0418 55.0939 49.9308C54.6904 49.6483 54.65 50.3848 54.2465 50.2032C53.9438 50.1628 54.1859 49.8198 53.9438 49.7089C53.5403 49.386 53.4999 50.0922 53.0964 49.951C52.7534 49.951 52.9955 49.5273 52.7231 49.4163C52.3196 49.1338 52.3499 49.7997 51.9766 49.6584C51.674 49.6584 51.7446 49.3053 51.6033 49.1641C51.2301 48.7706 51.1594 49.4365 50.7862 49.3356C50.655 49.2952 50.4835 49.1237 50.5541 48.9825C50.3524 48.3469 49.9085 48.9825 49.6058 48.9724C49.3032 48.9018 49.4747 48.5487 49.2729 48.3671C48.94 47.9737 48.7584 48.5689 48.486 48.6092C48.3549 48.6092 48.254 48.4276 48.2843 48.2561C48.3246 48.0443 48.486 48.1149 48.6575 48.1553C48.6979 48.0846 48.7988 48.125 48.7584 48.014C48.5264 47.5903 48.3145 48.1855 47.9715 47.9737C47.5983 47.9333 47.8101 47.4793 47.5377 47.3785C47.3662 47.2372 47.1645 47.4087 47.0939 47.55C46.6197 47.7517 46.7206 47.1262 46.4886 46.9447C46.0144 46.9749 46.2565 46.4201 45.9135 46.2385C45.6411 46.0266 45.5402 46.5815 45.2679 46.4402C44.9652 46.3696 45.2376 46.0165 45.0358 45.8753C44.5919 45.9056 44.602 45.4112 44.4003 45.1288C43.9564 45.159 44.0674 44.6344 43.7243 44.4932C43.6235 44.352 43.5226 44.5235 43.452 44.5941C43.3511 44.695 43.1796 44.6647 43.0787 44.5537C42.9778 44.3419 43.0787 44.0594 43.2905 44.0291C43.119 43.7063 42.7458 44.1603 42.5844 43.7769C42.655 43.3532 42.423 43.2523 42.1102 43.101C42.08 42.5764 41.5049 42.4957 41.3334 42.0417C41.172 41.6886 40.9904 42.183 40.7584 42.072C40.6272 42.0014 40.4557 41.8198 40.5263 41.5777C40.4961 41.4768 40.3952 41.5373 40.2943 41.507C40.1934 41.5373 40.1531 41.6483 40.1531 41.7492C40.5163 42.7378 41.1216 43.6559 41.6865 44.5739C42.1909 45.3204 42.7559 45.8854 43.3309 46.5512C43.5629 46.874 43.9059 46.9749 44.0674 47.2977C46.5894 49.7089 49.6765 51.1111 52.9653 51.8375C53.4798 51.8375 53.9136 52.2007 54.3877 51.9888C54.8921 52.3419 55.6488 52.0695 56.1834 52.2915C56.4558 52.1906 56.7282 52.2208 57.0309 52.3016C57.4747 52.1301 58.0498 52.3419 58.4533 52.1401C59.3713 52.0393 60.2894 51.9485 61.1469 51.7063C61.8632 51.5752 62.5391 51.3633 63.2251 51.1616C63.5984 50.9195 64.0725 50.8892 64.4155 50.6067C66.0498 49.9207 67.6236 48.9119 68.9956 47.7013C69.4092 47.3179 69.9237 46.9043 70.2365 46.41C71.5076 45.1893 72.4357 43.6559 73.263 42.1527C73.4748 41.3456 73.9591 40.6495 74.1003 39.8122C74.1608 39.6205 74.3324 39.1968 73.8885 39.4389Z" fill="#D9D9D9"/>
<path d="M52.4001 50.0918C52.4001 50.0818 52.4001 50.0718 52.4101 50.0518C52.4001 50.0518 52.4001 50.0418 52.3901 50.0518C52.3701 50.0818 52.3801 50.0718 52.4001 50.0918Z" fill="#D9D9D9"/>
<path d="M46.8719 43.1211C46.9728 43.0908 47.0736 42.9799 47.0736 42.8386C47.0434 42.6974 46.8719 42.5562 46.7004 42.5562C46.5591 42.5864 46.4885 42.768 46.4885 42.9092C46.5692 43.0404 46.7004 43.1514 46.8719 43.1211Z" fill="#D9D9D9"/>
<path d="M46.3675 42.2032C46.3978 42.2032 46.4684 42.1326 46.4382 42.0317C46.4079 41.8904 46.2364 41.9913 46.196 42.1023C46.2364 42.1628 46.307 42.2032 46.3675 42.2032Z" fill="#D9D9D9"/>
<path d="M49.4243 42.4048C49.4546 42.4048 49.5252 42.3342 49.4949 42.2333C49.4646 42.193 49.4646 42.1627 49.4243 42.1627C49.2931 42.2232 49.2931 42.3645 49.4243 42.4048Z" fill="#D9D9D9"/>
<path d="M47.5883 42.5966C47.6186 42.5259 47.6892 42.4957 47.6892 42.3847C47.6892 42.3141 47.5883 42.2132 47.4874 42.1729C47.4168 42.2435 47.3159 42.3444 47.3159 42.4553C47.3865 42.5259 47.4572 42.6268 47.5883 42.5966Z" fill="#D9D9D9"/>
<path d="M45.6512 42.6874C45.6815 42.6571 45.7925 42.5865 45.7925 42.5159C45.7218 42.304 45.4495 42.304 45.4495 42.5462C45.4898 42.6168 45.5503 42.6874 45.6512 42.6874Z" fill="#D9D9D9"/>
<path d="M50.6147 42.8387C50.6853 42.7681 50.8568 42.6975 50.8265 42.5562C50.7963 42.415 50.5239 42.2737 50.4533 42.4856C50.312 42.5865 50.4734 42.7983 50.6147 42.8387Z" fill="#D9D9D9"/>
<path d="M48.698 46.2485C48.698 46.2585 48.708 46.2585 48.718 46.2685V46.2585C48.708 46.2585 48.698 46.2585 48.698 46.2485Z" fill="#D9D9D9"/>
<path d="M44.935 43.101C44.9652 43.0707 45.0056 43.0001 45.0358 42.9295C44.9652 42.8185 44.7332 42.7479 44.7634 42.9598C44.8038 43.0304 44.8341 43.101 44.935 43.101Z" fill="#D9D9D9"/>
<path d="M46.0851 43.5348C46.2264 43.4642 46.3575 43.3633 46.3273 43.1817C46.2566 43.0405 46.1557 43.0001 46.0246 43.0001C45.9237 43.0304 45.8228 43.1414 45.8127 43.2826C45.8834 43.3936 45.954 43.5348 46.0851 43.5348Z" fill="#D9D9D9"/>
<path d="M45.4696 43.8072C45.4998 43.7668 45.5099 43.6962 45.5099 43.6659C45.4796 43.5953 45.409 43.4844 45.3081 43.5247C45.2375 43.5953 45.3384 43.7668 45.4696 43.8072Z" fill="#D9D9D9"/>
<path d="M66.6956 41.1943C66.7662 41.1943 66.7964 41.0934 66.7964 41.0228C66.7258 40.9522 66.6956 40.8816 66.6249 40.8816C66.5543 40.9522 66.4232 40.9825 66.4534 41.0934C66.4938 41.154 66.5947 41.3053 66.6956 41.1943Z" fill="#D9D9D9"/>
<path d="M67.3816 40.7504C67.4119 40.7201 67.4825 40.6798 67.4825 40.6091C67.4522 40.5385 67.3816 40.5083 67.3513 40.4982C67.1496 40.5688 67.2807 40.71 67.3816 40.7504Z" fill="#D9D9D9"/>
<path d="M64.0121 41.84C64.0827 41.7996 64.1836 41.6987 64.1533 41.5979C64.0524 41.4163 63.8103 41.4869 63.78 41.6685C63.8103 41.729 63.9112 41.84 64.0121 41.84Z" fill="#D9D9D9"/>
<path d="M62.1759 41.7895C62.1456 41.7895 62.1053 41.7189 62.075 41.7189C62.0044 41.7491 61.9338 41.8198 62.0347 41.8904C62.1053 41.8904 62.1053 41.8198 62.1759 41.7895Z" fill="#D9D9D9"/>
<path d="M70.0348 40.1754C70.1054 40.1048 70.176 40.0745 70.176 40.0039C70.1054 39.792 69.8734 39.8626 69.833 40.0341C69.8734 40.1048 69.9339 40.246 70.0348 40.1754Z" fill="#D9D9D9"/>
<path d="M52.5214 42.6067C52.5516 42.5663 52.6929 42.5361 52.6626 42.4352C52.6323 42.3646 52.5617 42.3343 52.4911 42.3242C52.4205 42.3545 52.3498 42.4251 52.3902 42.4957C52.4205 42.5764 52.4507 42.6067 52.5214 42.6067Z" fill="#D9D9D9"/>
<path d="M70.8318 39.5499C70.8015 39.4086 70.63 39.4793 70.6603 39.6205C70.6906 39.6609 70.7309 39.6911 70.7612 39.6911C70.7915 39.6508 70.8621 39.6205 70.8318 39.5499Z" fill="#D9D9D9"/>
<path d="M73.9289 38.6319C73.9591 38.7025 74.06 38.7731 74.1306 38.7731C74.2315 38.7731 74.2719 38.6319 74.2719 38.5613C74.2013 38.2788 73.8986 38.42 73.9289 38.6319Z" fill="#D9D9D9"/>
<path d="M57.6463 42.5159C57.5757 42.4856 57.5454 42.3746 57.4748 42.3746C57.4042 42.4049 57.3033 42.5461 57.4042 42.6168C57.5151 42.758 57.616 42.5865 57.6463 42.5159Z" fill="#D9D9D9"/>
<path d="M55.6085 42.8084C55.7094 42.8084 55.78 42.7075 55.78 42.5965C55.6791 42.425 55.437 42.4553 55.4067 42.6268C55.437 42.7075 55.5076 42.8084 55.6085 42.8084Z" fill="#D9D9D9"/>
<path d="M58.7358 43.0909C58.8367 43.0203 58.9073 42.9194 58.9073 42.7378C58.8367 42.6672 58.7358 42.5259 58.6047 42.5562C58.5341 42.6268 58.4029 42.7277 58.4332 42.8689C58.4634 42.9799 58.5946 43.1211 58.7358 43.0909Z" fill="#D9D9D9"/>
<path d="M53.6716 43.0102C53.8027 42.9799 53.9137 42.869 53.8733 42.7277C53.8733 42.6268 53.7422 42.5865 53.6413 42.5461C53.5404 42.5764 53.4395 42.6874 53.4698 42.8286C53.5001 42.8992 53.601 43.0102 53.6716 43.0102Z" fill="#D9D9D9"/>
<path d="M61.3587 42.4149C61.4293 42.3847 61.5605 42.3141 61.5302 42.2031C61.4596 42.1325 61.3991 41.9912 61.2881 42.0618C61.2175 42.0921 61.1166 42.1325 61.1469 42.2333C61.1872 42.3443 61.2478 42.4049 61.3587 42.4149Z" fill="#D9D9D9"/>
<path d="M59.4219 42.4957C59.4925 42.4553 59.5531 42.4251 59.5632 42.3242C59.4925 42.1426 59.2908 42.2536 59.2908 42.3948C59.3109 42.4251 59.3513 42.536 59.4219 42.4957Z" fill="#D9D9D9"/>
<path d="M52.4001 50.0918C52.4001 50.0818 52.4001 50.0718 52.4101 50.0518C52.4001 50.0518 52.4001 50.0418 52.3901 50.0518C52.3701 50.0818 52.3801 50.0718 52.4001 50.0918Z" fill="#D9D9D9"/>
<path d="M48.698 46.2485C48.698 46.2585 48.708 46.2585 48.718 46.2685V46.2585C48.708 46.2585 48.698 46.2585 48.698 46.2485Z" fill="#D9D9D9"/>
<path d="M53.1872 17.4262C53.0156 17.5573 52.4406 18.1525 52.2691 17.8902C52.1481 17.7086 52.4204 17.4867 52.4204 17.4867L50.0699 17.174L49.6663 18.3946L50.1808 18.7477L49.5957 22.087L51.0787 23.0454L52.4103 21.5624L51.8555 21.0277C51.8555 21.0277 51.4822 21.401 51.3309 21.058C51.2905 20.9571 51.5024 20.3921 51.6638 19.9583C51.8252 19.5346 52.1279 18.7074 52.4305 19.1916C52.6928 19.6153 52.8946 20.3619 52.8946 20.3619L53.7622 19.2925L53.6109 17.7086C53.6008 17.749 53.3385 17.5573 53.1872 17.4262Z" fill="#D9D9D9"/>
<path d="M73.2833 16.9722C73.1017 17.0832 72.4661 17.6077 72.3249 17.3454C72.224 17.1538 72.5166 16.9621 72.5166 16.9621L70.4989 16.4375L69.9743 17.5876L70.4485 17.981L69.5405 21.179L70.9226 22.2585L72.3854 20.947L71.881 20.3719C71.881 20.3719 71.4674 20.6948 71.3665 20.3518C71.3362 20.2509 71.4371 19.7061 71.6389 19.3026C71.8407 18.8991 72.1433 18.3139 72.3552 18.6368C72.6175 19.0504 72.6982 19.8272 72.6982 19.8272L73.6667 18.8688V17.3152C73.6667 17.3152 73.4245 17.1134 73.2833 16.9722Z" fill="#D9D9D9"/>
<path d="M47.7394 21.4009C47.5377 21.1992 48.4961 18.213 48.4961 18.213L46.0446 17.5472L45.7419 18.7174L46.2565 19.2319L45.9538 22.7528C45.9538 22.7528 47.3258 23.5699 47.3863 23.5699C47.4368 23.5699 48.607 21.7843 48.607 21.7843L48.143 21.2698C48.143 21.2698 47.9412 21.6027 47.7394 21.4009ZM47.8807 14.3895C47.2855 14.3895 46.8012 14.8435 46.8012 15.3984C46.8012 15.9532 47.2855 16.4072 47.8807 16.4072C48.4759 16.4072 48.9601 15.9532 48.9601 15.3984C48.9702 14.8435 48.486 14.3895 47.8807 14.3895Z" fill="#D9D9D9"/>
<path d="M68.1885 20.4022C67.9867 20.2004 68.9451 17.3051 68.9451 17.3051L66.7055 16.609L66.4028 17.749L66.9173 18.2433L66.4835 21.6431C66.4835 21.6431 67.7849 22.4905 67.8354 22.4905C67.8858 22.4905 69.0561 20.7553 69.0561 20.7553L68.592 20.261C68.592 20.2812 68.3902 20.604 68.1885 20.4022ZM68.3398 13.522C67.7446 13.522 67.2603 13.9759 67.2603 14.5308C67.2603 15.0857 67.7446 15.5396 68.3398 15.5396C68.935 15.5396 69.4192 15.0857 69.4192 14.5308C69.4192 13.9759 68.935 13.522 68.3398 13.522Z" fill="#D9D9D9"/>
<path d="M61.601 13.9255L59.1899 18.5056L58.9679 18.3139C58.9679 18.3139 58.9074 16.0945 59.1092 14.3996L56.6981 15.8624L56.4761 17.6581C56.4761 17.6581 56.3046 17.87 56.0625 18.2332C56.0625 17.6178 55.9515 13.3706 55.9515 13.3706L53.7119 14.9343L53.7624 15.9129L54.2769 15.9633C54.519 18.1222 54.7207 20.9167 54.7813 21.7338C54.983 21.9053 56.2844 22.5712 56.2844 22.5106C56.2844 22.4602 57.495 19.7363 57.495 19.7363L57.949 22.5913L59.6035 21.7742C59.6035 21.7742 62.0751 15.9532 62.5392 15.247C62.7611 15.1562 63.4371 15.1159 63.4371 15.1159L63.6187 13.7237L61.601 13.9255Z" fill="#D9D9D9"/>
<path d="M63.2149 20.8159C63.2149 20.8159 62.428 21.169 62.0346 21.2699C61.9236 21.3001 61.7521 21.3506 61.7521 21.2295C61.7521 20.7453 63.4167 19.6658 63.4167 19.6658L63.2149 20.8159ZM64.6777 20.2409C64.6777 20.2409 64.9299 18.889 65.6765 16.9622L63.5478 16.5385L62.5592 17.6583L63.0737 17.9912C63.0737 17.9912 63.2149 17.8499 63.336 17.7793C63.5983 17.628 63.6891 17.9609 63.5075 18.2636C62.5491 18.9294 61.4091 19.686 60.6021 20.7453L61.3688 22.5007L63.3965 21.855L64.3448 22.6116L65.5655 21.1286C65.5655 21.1286 65.3234 20.6948 65.2023 20.4527C64.7786 20.7957 64.6172 20.4931 64.6777 20.2409Z" fill="#D9D9D9"/>
<path d="M42.423 21.3707L41.8076 21.2194L42.5743 19.0908L42.423 21.3707ZM44.3398 22.995C44.1683 21.5927 44.4709 15.4892 44.5213 15.3984C44.2792 15.4691 42.2212 16.0643 42.2212 16.0643L39.6184 22.9445L38.9526 22.8436L38.4583 24.0038L40.4255 25.2951L41.4444 22.5914L42.5339 22.8436C42.6348 23.913 42.8669 25.0832 42.8669 25.0832L45.1065 23.9634V22.8941C45.1266 22.8941 44.5012 22.9748 44.3398 22.995Z" fill="#D9D9D9"/>
<path d="M67.4018 38.1274C67.8154 38.3393 68.4711 38.5612 69.5607 38.3796C71.1446 38.1072 74.9579 37.1387 76.6326 36.6444L76.4409 35.908C73.4851 36.7756 70.4485 37.5221 67.4018 38.1274ZM75.9163 33.8298C72.5368 34.8083 69.0865 35.6356 65.6061 36.251C65.6969 36.4729 65.8179 36.7049 65.9692 36.9471C65.9692 36.9471 65.9692 36.9471 65.9793 36.9572C69.3892 36.3418 72.789 35.5246 76.0979 34.5662L75.9163 33.8298ZM76.1887 34.879C72.9201 35.8373 69.5708 36.6343 66.2114 37.2497C66.403 37.4817 66.6452 37.6936 66.9377 37.8651C66.9478 37.8651 66.9478 37.8752 66.9579 37.8752C70.1357 37.2699 73.2934 36.4931 76.3804 35.5851L76.1887 34.879ZM75.6339 32.7301L71.6691 33.7188L71.881 34.5662C73.2127 34.2333 74.5242 33.8802 75.8356 33.5069L75.6339 32.7301ZM69.0966 31.57L71.0134 31.0958C71.0134 31.0958 70.7612 30.0265 70.6502 29.6835C70.2971 28.6746 68.5519 29.1185 68.7536 30.1475C68.8242 30.5208 69.0966 31.57 69.0966 31.57ZM70.1559 34.9798C68.6023 35.3329 67.0487 35.6558 65.485 35.9281C65.4648 35.8676 65.4446 35.8071 65.4245 35.7466C65.2227 35.1211 64.6477 33.0429 64.4257 31.7112C63.4169 25.7087 73.5052 24.377 74.5544 28.4426L75.3917 31.4994L69.4497 33.0328L69.8533 34.5965H69.8734C69.934 34.7579 70.0348 34.889 70.1559 34.9798ZM78.5393 35.2623C80.5973 34.6066 82.615 33.9004 84.5822 33.1438L84.8243 33.7692C84.2695 33.9912 79.3665 35.7768 78.8117 35.9584L78.5393 35.2623ZM90.2317 29.3102C88.5671 30.0668 86.8622 30.7932 85.1068 31.4792L84.8344 30.7932C86.5898 30.1072 88.3048 29.3808 89.9694 28.6343L90.2317 29.3102ZM89.8483 28.3215C88.1838 29.0782 86.4687 29.7944 84.7134 30.4804L83.1598 26.5258C82.5343 24.8612 80.678 25.4565 81.364 27.2118C81.6566 27.9584 81.9693 28.7251 82.2316 29.4212C82.5343 30.2181 83.3918 29.9659 83.3918 29.9659L83.7247 30.8436C81.7373 31.6003 79.7095 32.2963 77.6314 32.942L77.3691 32.2661C77.3691 32.2661 78.0954 31.7818 77.823 31.0151C77.591 30.3897 77.1269 29.2093 76.8646 28.5435C76.4813 27.5649 75.6944 27.8877 75.6944 27.8877L74.5443 24.9218L79.4473 23.0151C79.4473 23.0151 79.9214 24.1954 79.9214 24.2358C80.3552 23.2774 81.7373 22.1273 83.0286 21.8146C85.9946 21.0983 86.8117 23.2269 88.3956 26.9899C88.7588 27.8575 89.5154 27.464 89.5154 27.464L89.8483 28.3215ZM77.7625 33.2749C79.8306 32.6293 81.8584 31.9332 83.8458 31.1765L84.1081 31.8625C82.1308 32.6192 80.103 33.3254 78.0349 33.971L77.7625 33.2749ZM90.7058 30.5511L90.948 31.1665C90.0703 31.6204 86.7209 33.0126 85.8433 33.3758L85.591 32.7301C87.3464 32.0542 89.0513 31.3178 90.7058 30.5511ZM90.5848 30.2383C88.9303 31.005 87.2254 31.7314 85.47 32.4275L85.2178 31.7818C86.9732 31.0958 88.6882 30.3695 90.3427 29.6128L90.5848 30.2383ZM78.4182 34.9496C80.4763 34.2938 82.4939 33.5877 84.4712 32.831L84.2291 32.1854C82.2518 32.942 80.2241 33.6381 78.166 34.2938L78.4182 34.9496ZM100.411 25.3858C100.401 25.4161 100.391 25.4363 100.37 25.4665C100.017 26.203 99.3717 26.9293 98.3024 27.5145C97.7878 27.7969 93.8635 29.8852 92.7639 30.4401L92.4007 29.7541C95.2658 28.372 97.9594 26.8991 100.411 25.3858ZM100.451 22.6721C99.1397 23.4993 97.7576 24.3064 96.3149 25.0933C96.3149 24.9924 96.2847 24.8814 96.2242 24.7704C95.9114 24.2055 95.5382 24.0542 93.2077 24.831C92.5318 25.0529 90.3931 25.5876 89.0009 24.1551C88.7083 23.8423 88.4158 23.3379 88.2645 23.0151C87.3162 20.9066 89.0413 19.1512 90.151 18.4854C90.6554 18.1828 95.6592 15.6102 95.6592 15.6102L97.3944 18.8486C97.3944 18.8486 94.378 20.4224 93.8938 20.6847C93.7929 20.5737 93.6819 20.261 93.4499 20.1903C92.9354 20.0188 91.9366 20.5939 91.9568 21.068C91.9669 21.2395 92.0678 21.4716 92.1384 21.522C92.3401 21.6834 92.7437 21.7944 94.035 21.3101C98.6554 19.5649 99.9165 21.4211 100.451 22.6721ZM94.7109 25.9609C93.6012 26.5359 92.4612 27.1009 91.301 27.6557L90.8975 26.889C90.8975 26.889 93.6617 25.4363 94.146 25.174C94.2267 25.2547 94.378 25.6885 94.5999 25.8701C94.6302 25.9104 94.6706 25.9306 94.7109 25.9609ZM100.592 24.8713C98.0501 26.4653 95.2456 28.0088 92.2494 29.4615L91.9467 28.8764C95.1044 27.3732 98.0602 25.749 100.724 24.0844C100.724 24.1046 100.724 24.1248 100.724 24.145C100.703 24.377 100.663 24.6191 100.592 24.8713ZM100.613 23.1059C100.602 23.0655 100.582 23.0252 100.572 22.9848C97.808 24.72 94.7311 26.3846 91.4423 27.9382L91.7752 28.5737C94.9934 27.0403 97.9997 25.3858 100.703 23.6809C100.703 23.4892 100.663 23.2875 100.613 23.1059ZM50.3828 37.1791C49.0007 37.1892 46.7409 37.1993 43.9767 37.2094V36.4527C43.9767 36.4527 44.8342 36.4124 44.8342 35.5246V32.7604C44.8342 31.8726 43.9767 31.8323 43.9767 31.8323V28.6444H49.2428V29.9559C51.2907 27.807 55.0436 28.1097 55.0234 32.367C55.0234 33.3052 55.0133 34.0618 55.0133 34.0618H51.442L51.4319 33.3556C51.4319 31.338 49.5253 31.3884 49.5152 33.2547L49.5253 35.6356C49.5253 36.5234 50.3828 36.5637 50.3828 36.5637V37.1791ZM50.3929 39.7214V40.4679H43.9868V39.7516L50.3929 39.7214ZM50.3929 39.3784C49.0108 39.3884 46.751 39.3985 43.9868 39.4086V38.6419L50.3929 38.6116V39.3784ZM50.3828 37.5221L43.9767 37.5524V38.3191C46.7409 38.309 49.0007 38.2989 50.3828 38.2888V37.5221ZM29.4293 39.4792C26.6651 39.4893 23.9312 39.4994 21.4192 39.5196V38.7529L29.4293 38.7125V39.4792ZM29.4293 39.8122V40.6091H21.4192V39.8525L29.4293 39.8122ZM29.4192 38.3796C26.655 38.3897 23.9312 38.4099 21.4091 38.42V37.6532L29.4192 37.6129V38.3796ZM10.7961 38.7932L18.8063 38.7529V39.5196C15.2855 39.5398 12.4002 39.5499 10.7961 39.5599V38.7932ZM10.8062 37.6936L18.8164 37.6532V38.42C15.2955 38.4401 12.4103 38.4502 10.8062 38.4603V37.6936ZM10.7961 39.903L18.8063 39.8626V40.6091H10.7961V39.903ZM29.4192 36.4426C29.4192 36.4426 27.23 36.483 27.1998 35.1009C27.1796 33.7188 27.1594 30.6015 27.1897 29.5523C27.2401 27.7465 29.3183 27.8171 29.3183 27.8171V24.5586H23.0232L20.1178 29.9155L17.2123 24.5586H10.9172V27.8171C10.9172 27.8171 13.066 27.7465 13.1165 29.5523C13.1467 30.5914 13.1265 33.7188 13.1064 35.1009C13.0761 36.4729 10.8163 36.4426 10.8163 36.4426V37.3607C12.4204 37.3506 15.3056 37.3405 18.8265 37.3203V36.5133C18.8265 36.5133 17.7571 36.4931 17.7571 35.565C17.7571 34.6469 17.7571 33.628 17.7571 33.628L20.1279 36.6343L22.4986 33.628C22.4986 33.628 22.4986 34.6469 22.4986 35.565C22.4986 36.483 21.4292 36.5133 21.4292 36.5133V37.3102C23.9513 37.3002 26.6752 37.2901 29.4394 37.2699L29.4192 36.4426ZM36.2591 36.4729C35.5327 36.4729 34.9476 35.3935 34.9476 34.0517C34.9476 32.71 35.5327 31.6305 36.2591 31.6305C36.9855 31.6305 37.5706 32.7201 37.5706 34.0517C37.5706 35.3935 36.9855 36.4729 36.2591 36.4729ZM41.6261 35.5448V28.6545L37.2175 28.6746V29.976C36.7232 28.9773 34.7055 28.4325 33.2729 29.0681C31.114 30.0164 30.2868 32.367 30.2969 34.5864C30.2868 35.4943 30.428 36.4225 30.7509 37.28C34.877 37.2598 39.0031 37.2396 42.4937 37.2295V36.4931C42.4836 36.483 41.6261 36.4426 41.6261 35.5448ZM32.6979 39.8021L36.6525 39.7819C35.8152 40.367 34.3625 40.5789 33.2528 40.0946C33.0611 40.0038 32.8795 39.913 32.6979 39.8021ZM42.4735 39.4187C40.8291 39.4288 39.0536 39.4288 37.2074 39.4389V39.1867C37.167 39.2775 37.1065 39.3582 37.0359 39.4389C35.4722 39.449 33.8581 39.449 32.2339 39.4591C31.9615 39.2371 31.7193 38.9748 31.5075 38.7024L42.4735 38.652V39.4187ZM42.4735 39.7516V40.4881H37.2074V39.7718L42.4735 39.7516ZM42.4735 37.5524L30.8618 37.6028C30.9829 37.8752 31.1241 38.1173 31.2755 38.3695C35.22 38.3493 39.1343 38.3292 42.4735 38.3191V37.5524ZM17.979 11.0604V20.0088C17.979 20.0088 20.6424 20.3013 20.6928 18.6468V12.4223C20.6424 10.7678 17.979 11.0604 17.979 11.0604ZM31.3663 23.1462H33.5655V20.6544H31.3663V23.1462ZM26.3423 20.5838V23.1563H30.4482L30.4381 20.6544C30.4381 20.6544 29.8934 20.6342 29.8934 20.0592V18.5359C29.9034 17.3454 31.1241 17.3051 31.1241 18.5964L31.1342 19.0504H33.4344C33.4344 19.0504 33.4344 18.5661 33.4344 17.9608C33.4445 15.237 31.0233 15.0453 29.7118 16.4173V15.58H26.3322V17.6178C26.3322 17.6178 26.8769 17.638 26.8769 18.213V19.9886C26.887 20.5535 26.3423 20.5838 26.3423 20.5838ZM20.6827 12.4223C20.6424 10.7678 17.9689 11.0604 17.9689 11.0604V20.0088C17.9689 20.0088 20.6323 20.3013 20.6827 18.6468V12.4223ZM23.1039 23.2976H10.9273V19.9079C10.9273 19.9079 12.9752 19.8978 13.066 18.2029V12.8662C12.9752 11.1613 10.9273 11.1613 10.9273 11.1613V7.77161H23.1039C23.1039 7.77161 25.5251 7.79178 25.6058 10.3139V20.7553C25.5251 23.2774 23.1039 23.2976 23.1039 23.2976ZM63.9617 36.1804C61.4799 36.5738 58.9881 36.8563 56.5165 37.0177L56.4257 36.2711C56.4257 36.2711 57.7775 36.0089 57.6968 34.8083C57.6766 34.6267 57.4345 32.7503 57.3942 32.4578C57.2428 31.5599 56.1936 31.8424 56.1936 31.8424C56.1936 31.8424 55.78 28.4628 55.8002 28.4527C56.0827 28.4123 56.8797 28.3316 56.7687 27.4539C56.6779 26.6771 56.4257 24.8915 56.4257 24.8915L61.0966 24.3467C61.0966 24.3467 61.2983 26.1425 61.3891 26.9092C61.5001 27.7869 62.287 27.6456 62.5695 27.6154C62.5896 27.6154 63.0134 30.9949 63.0134 30.9949C63.0134 30.9949 61.9339 31.005 62.0045 31.913C62.0449 32.2055 62.2567 34.0921 62.2769 34.2636C62.4888 35.4439 63.8507 35.343 63.8507 35.343L63.9617 36.1804ZM64.2139 38.3493C61.7422 38.7428 59.2605 39.0354 56.7889 39.2069L56.6981 38.4502C59.1697 38.2888 61.6514 37.9963 64.1231 37.6028L64.2139 38.3493ZM64.2441 38.6823L64.3248 39.3683C63.0941 39.6507 58.7359 40.1249 56.9099 40.2359L56.8191 39.5398C59.2908 39.3683 61.7725 39.0757 64.2441 38.6823ZM64.002 36.5133C61.5203 36.9067 59.0285 37.1892 56.5568 37.3506L56.6476 38.1072C59.1193 37.9458 61.601 37.6532 64.0827 37.2598L64.002 36.5133ZM20.6827 12.4223V18.6468C20.6424 20.3013 17.9689 20.0088 17.9689 20.0088V11.0503C17.979 11.0604 20.6424 10.7678 20.6827 12.4223Z" fill="#D9D9D9"/>
<path d="M29.4292 39.8122V39.4792V39.8122ZM21.4089 39.5095V39.8424V39.5095Z" fill="#D9D9D9"/>
<path d="M63.5681 54.1982C63.7598 54.1275 63.8809 53.956 63.8203 53.7644C63.7598 53.5727 63.558 53.5222 63.3663 53.5929C63.1646 53.6635 63.0536 53.835 63.1141 54.0267C63.1646 54.1982 63.3462 54.2789 63.5681 54.1982ZM63.8708 55.0758C63.5984 55.207 63.5076 55.4491 63.6186 55.6509C63.7396 55.8728 64.012 55.9031 64.2642 55.7719C64.5164 55.6509 64.6375 55.4188 64.5164 55.1969C64.3853 54.975 64.1129 54.9447 63.8708 55.0758ZM51.331 54.4907C50.9577 54.3898 50.766 54.7026 50.7055 54.9447C50.645 55.1868 50.645 55.5601 51.0283 55.6711C51.4016 55.7719 51.5933 55.4491 51.6538 55.207C51.7143 54.9649 51.7042 54.5916 51.331 54.4907ZM72.5568 49.3255C72.5366 49.4667 72.4559 49.6181 72.3147 49.7694C72.1735 49.9207 72.0322 50.0216 71.891 50.0619C71.7397 50.1023 71.6186 50.072 71.5076 49.9711C71.4975 49.9611 71.4975 49.951 71.4975 49.951C71.4975 49.9409 71.4975 49.9308 71.5076 49.9308L71.7195 49.6988C71.7296 49.6887 71.7498 49.6887 71.7598 49.6988L71.8809 49.7391C71.9515 49.7391 72.0221 49.6887 72.1028 49.5979L72.2138 49.4466C72.2643 49.3457 72.234 49.3053 72.2037 49.2851C72.1836 49.2751 72.1634 49.2549 72.123 49.275L71.9414 49.386L71.8002 49.4869L71.4875 49.6786C71.3563 49.7189 71.2453 49.6887 71.1445 49.5979C71.0537 49.5172 71.0133 49.3961 71.0234 49.265C71.0335 49.1338 71.1142 48.9825 71.2554 48.8312C71.3664 48.7 71.4975 48.6193 71.6388 48.579C71.78 48.5386 71.9112 48.5689 72.0221 48.6597C72.0322 48.6597 72.0322 48.6697 72.0322 48.6798C72.0322 48.6899 72.0322 48.7 72.0221 48.7101L71.8103 48.9421C71.8002 48.9522 71.78 48.9522 71.7598 48.9421C71.7094 48.9018 71.6489 48.9018 71.5883 48.932L71.4471 49.043L71.3462 49.2044C71.3361 49.265 71.3563 49.2952 71.3664 49.3053C71.3866 49.3154 71.4067 49.3356 71.4572 49.3154L71.6287 49.2044L71.8506 49.043L72.1129 48.9018C72.234 48.8715 72.3349 48.9018 72.4358 48.9825C72.5366 49.0632 72.577 49.1843 72.5568 49.3255ZM71.5177 50.5764L70.6602 51.3633C70.6501 51.3734 70.6299 51.3734 70.6098 51.3633L69.7321 50.4251C69.722 50.415 69.722 50.3848 69.7321 50.3747L70.5593 49.608C70.5694 49.5979 70.5896 49.5979 70.6098 49.608L70.7611 49.7795C70.7712 49.7896 70.7712 49.7996 70.7712 49.7996C70.7712 49.8097 70.7712 49.8198 70.7611 49.8198C70.7611 49.8198 70.2466 50.3041 70.1961 50.3444C70.2264 50.3747 70.3071 50.4655 70.3374 50.4957C70.3878 50.4554 70.8519 50.0115 70.8519 50.0115C70.862 50.0014 70.8721 50.0014 70.8721 50.0014C70.8822 50.0014 70.8922 50.0014 70.8922 50.0115L71.0436 50.1729C71.0537 50.183 71.0537 50.183 71.0537 50.1931C71.0537 50.2032 71.0537 50.2133 71.0436 50.2133C71.0436 50.2133 70.5694 50.6471 70.5291 50.6874C70.5593 50.7278 70.6804 50.8488 70.7107 50.8791C70.7611 50.8387 71.3059 50.3242 71.3059 50.3242C71.316 50.3141 71.3361 50.3141 71.3563 50.3242L71.5076 50.4957C71.5177 50.5058 71.5177 50.5159 71.5177 50.5159C71.5278 50.5563 71.5177 50.5664 71.5177 50.5764ZM70.3071 51.6761L69.4496 52.3621C69.4294 52.3722 69.4093 52.3722 69.3992 52.352L68.6022 51.3432C68.5921 51.323 68.5921 51.3028 68.6022 51.2927L68.8544 51.0909C68.8645 51.0809 68.8746 51.0809 68.8847 51.0809C68.8948 51.0809 68.9048 51.0909 68.9048 51.0909C68.9048 51.0909 69.5001 51.8375 69.5404 51.8879C69.5909 51.8476 70.1154 51.4239 70.1154 51.4239C70.1255 51.4138 70.1558 51.4138 70.1659 51.434L70.3071 51.6155C70.3172 51.6256 70.3172 51.6357 70.3172 51.6357C70.3172 51.666 70.3172 51.666 70.3071 51.6761ZM68.804 52.6748C68.7636 52.8261 68.6425 52.9775 68.4509 53.0985C68.2592 53.2297 68.0776 53.2801 67.9263 53.2599C67.7144 53.2499 67.5429 53.1389 67.4118 52.9371C67.2705 52.7353 67.2403 52.5336 67.3109 52.3419C67.3512 52.1805 67.4723 52.0393 67.664 51.9182C67.8557 51.787 68.0372 51.7366 68.1886 51.7568C68.3903 51.7669 68.5719 51.8778 68.7031 52.0796C68.7939 52.2108 68.8342 52.352 68.8342 52.4831C68.8342 52.5437 68.8241 52.6143 68.804 52.6748ZM67.2806 53.7038C67.2201 53.835 67.099 53.9459 66.9174 54.0468C66.7358 54.1477 66.5643 54.1982 66.4231 54.1881C66.2718 54.178 66.1608 54.1074 66.0902 53.9762C66.0801 53.956 66.0902 53.9359 66.1003 53.9258L66.3727 53.7744C66.3828 53.7644 66.4029 53.7744 66.413 53.7845L66.5139 53.8552C66.5744 53.8753 66.6652 53.8552 66.7661 53.7946L66.9174 53.6937C66.9881 53.613 66.978 53.5626 66.9578 53.5323C66.9477 53.5121 66.9275 53.492 66.8771 53.5021L66.6652 53.5525L66.5038 53.613L66.1507 53.6937C66.0196 53.6937 65.9187 53.6332 65.8481 53.5121C65.7875 53.4012 65.7875 53.2801 65.838 53.1591C65.8985 53.038 66.0095 52.927 66.1911 52.8261C66.3424 52.7454 66.4937 52.7051 66.635 52.7152C66.7863 52.7253 66.8973 52.7959 66.978 52.9169C66.978 52.927 66.9881 52.9371 66.978 52.9472C66.9679 52.9573 66.9679 52.9674 66.9578 52.9674L66.6854 53.1187C66.6652 53.1288 66.6451 53.1187 66.635 53.1086C66.5946 53.0582 66.5442 53.0279 66.4736 53.038L66.302 53.0985L66.1507 53.2196C66.1306 53.2599 66.1205 53.2902 66.1406 53.3205C66.1507 53.3407 66.1709 53.3608 66.2213 53.3608L66.4231 53.3104L66.6854 53.2297L66.978 53.1792C67.099 53.1893 67.1898 53.2499 67.2504 53.3608C67.3412 53.4516 67.3411 53.5727 67.2806 53.7038ZM65.0107 55.6105C64.9401 55.8224 64.7283 56.004 64.4962 56.1149C64.012 56.3369 63.4975 56.3066 63.2856 55.9535C63.1848 55.782 63.1948 55.6206 63.2251 55.4996C63.0637 55.4895 62.9326 55.4188 62.8821 55.2675C62.761 54.9245 63.1646 54.7328 63.1343 54.6521C63.1141 54.5815 62.8014 54.5512 62.6904 54.2284C62.5593 53.835 62.7711 53.492 63.2554 53.3104C63.3764 53.2599 63.4672 53.2599 63.4874 53.2499C63.6589 53.1893 63.6589 52.8766 63.8102 52.8261C63.9111 52.7858 64.1835 52.927 64.1936 52.9775C64.2239 53.0683 63.8506 53.0985 63.9111 53.2599C63.9414 53.3507 64.1532 53.3407 64.2541 53.6635C64.3651 53.9762 64.2339 54.3898 63.6892 54.5916C63.4874 54.6622 63.2756 54.8539 63.3058 54.9447C63.3159 54.985 63.3563 55.0052 63.4067 55.0052C63.4874 54.985 63.5681 54.8741 63.7295 54.7833C64.3147 54.4806 64.7787 54.7328 64.9502 55.0456C65.0915 55.2776 65.041 55.5096 65.0107 55.6105ZM62.297 56.1553L61.9742 56.236C61.9237 56.2461 61.843 56.2764 61.8329 56.2158C61.8228 56.1856 61.9237 55.7316 61.7825 55.1061C61.732 54.8842 61.6513 54.6219 61.389 54.6824C61.2478 54.7127 60.9754 54.864 61.1066 55.4794C61.1873 55.8526 61.4092 56.2965 61.4092 56.3369C61.4193 56.3772 61.3487 56.3873 61.3184 56.3974L60.9956 56.4781C60.8544 56.5084 60.814 56.579 60.6324 55.7618C60.3197 54.3697 60.471 54.4201 60.7636 54.3495C60.8947 54.3192 61.0259 54.2688 61.046 54.3394C61.0561 54.3697 61.0259 54.41 61.0359 54.4605C61.046 54.4907 61.0662 54.5109 61.1066 54.5008C61.1671 54.4907 61.3184 54.3192 61.5605 54.2587C61.6614 54.2385 62.1053 54.1376 62.2869 54.9447C62.5492 56.1553 62.4281 56.125 62.297 56.1553ZM59.9767 56.6496L59.7144 56.69C59.5227 56.7202 59.5227 56.7808 59.3613 55.6811C59.21 54.6118 59.2907 54.7026 59.4117 54.6824L59.6236 54.6521C59.785 54.632 59.785 54.632 59.7951 54.6723C59.8052 54.7934 59.785 54.9144 59.8253 55.2473C59.9363 56.0342 60.1583 56.4983 60.1583 56.5286C60.1885 56.6395 60.0675 56.6395 59.9767 56.6496ZM59.22 54.2587C59.1999 54.1275 59.331 54.0166 59.4823 53.9964C59.6337 53.9762 59.785 54.0367 59.8052 54.1679C59.8253 54.299 59.6942 54.3999 59.5429 54.4201C59.3915 54.4403 59.2402 54.3898 59.22 54.2587ZM58.191 56.9018C57.5454 56.9523 57.2528 56.468 57.2226 56.0141C57.1822 55.4693 57.4848 54.8337 58.2415 54.7833C58.5744 54.7631 58.8266 54.8943 58.8367 55.0758C58.8468 55.1666 58.7661 55.3583 58.6248 55.3684C58.534 55.3785 58.534 55.1364 58.2213 55.1565C57.8279 55.1868 57.7068 55.6206 57.727 55.8829C57.7471 56.1856 57.9388 56.4378 58.302 56.4075C58.7156 56.3772 58.7963 56.0544 58.8266 56.0544C58.8468 56.0544 58.8871 56.1049 58.8972 56.236C58.9376 56.6093 58.645 56.8716 58.191 56.9018ZM56.7282 55.7518C56.6778 56.9926 56.5668 56.922 56.4357 56.922L56.1027 56.9119C56.0523 56.9119 55.9615 56.9119 55.9716 56.8514C55.9716 56.8211 56.1835 56.4075 56.2137 55.7719C56.2238 55.55 56.2137 55.2675 55.9514 55.2574C55.8102 55.2574 55.4974 55.318 55.4773 55.9434C55.4672 56.3268 55.558 56.811 55.558 56.8514C55.558 56.8917 55.4874 56.8917 55.447 56.8917L55.1242 56.8817C54.9829 56.8817 54.9224 56.9321 54.9527 56.0948C55.0031 54.6622 55.1343 54.7631 55.4369 54.7732C55.5681 54.7833 55.7093 54.7631 55.7093 54.8438C55.7093 54.8741 55.6689 54.9144 55.6689 54.9548C55.6689 54.985 55.6891 55.0153 55.7295 55.0153C55.79 55.0153 55.9817 54.8943 56.2238 54.9043C56.3045 54.8842 56.7585 54.9144 56.7282 55.7518ZM54.3272 55.7417C54.1557 56.8917 54.0649 56.8211 53.7925 56.7808C53.389 56.7202 53.7219 56.5891 53.51 56.5588C53.4798 56.5588 53.3789 56.6093 53.3083 56.6294C53.2377 56.6496 53.1368 56.6799 53.0157 56.6597C52.703 56.6093 52.4306 56.3974 52.5617 55.5096C52.5718 55.4592 52.7332 54.521 52.8947 54.5512L53.2477 54.6017C53.2982 54.6118 53.3991 54.6118 53.389 54.6723C53.3789 54.7127 53.157 55.0052 53.0762 55.5903C53.046 55.7619 52.9754 56.236 53.3083 56.2864C53.4293 56.3066 53.732 56.3167 53.8329 55.6509C53.8934 55.2776 53.8228 54.7732 53.8329 54.7228C53.843 54.6824 53.9237 54.7026 53.964 54.7026L54.3171 54.7631C54.4684 54.7833 54.3776 55.4491 54.3272 55.7417ZM52.0977 55.4088C51.9161 56.125 51.3209 56.2965 50.8972 56.1755C50.4735 56.0544 50.0397 55.6105 50.2313 54.8943C50.3625 54.3999 50.7862 53.956 51.4318 54.1376C52.0775 54.3091 52.2288 54.9245 52.0977 55.4088ZM50.0094 53.724C49.8883 54.0468 49.4041 54.067 49.3637 54.1578C49.3234 54.2587 49.8076 54.7328 49.6159 55.2373C49.505 55.5298 49.1822 55.7215 48.597 55.4693L47.5176 55.0254C47.4268 54.985 47.2956 54.9951 47.7294 53.8955C48.2944 52.4428 48.4558 52.5739 48.5163 52.6042L49.4445 52.9876C50.08 53.2499 50.08 53.5323 50.0094 53.724ZM46.6197 52.5235L45.9236 53.6029C45.9236 53.613 45.9135 53.613 45.9034 53.613C45.8934 53.613 45.8833 53.613 45.8732 53.613L45.6008 53.4415C45.5907 53.4314 45.5806 53.4214 45.5806 53.4113C45.5806 53.4012 45.5806 53.4012 45.5907 53.3911C45.5907 53.3911 45.853 52.9876 45.8833 52.9371C45.8328 52.9068 45.4797 52.6748 45.4293 52.6446C45.399 52.695 45.1367 53.0985 45.1367 53.0985C45.1266 53.1086 45.1065 53.1187 45.0863 53.1086L44.8139 52.9371C44.8038 52.9371 44.8038 52.927 44.7937 52.9169C44.7937 52.9068 44.7937 52.8968 44.8038 52.8867L45.4999 51.8072C45.4999 51.7971 45.51 51.7971 45.5201 51.787C45.5302 51.787 45.5403 51.787 45.5504 51.787L45.8227 51.9585C45.8328 51.9686 45.8429 51.9787 45.8429 51.9888C45.8429 51.9989 45.8429 51.9989 45.8328 52.009C45.8328 52.009 45.621 52.3419 45.5806 52.3923C45.6311 52.4226 45.9842 52.6546 46.0346 52.6849C46.0649 52.6345 46.2868 52.3015 46.2868 52.3015C46.2868 52.2915 46.2969 52.2915 46.307 52.2915C46.3171 52.2915 46.3272 52.2915 46.3372 52.3015L46.6096 52.4731C46.6197 52.4932 46.6298 52.5134 46.6197 52.5235ZM44.0169 52.3015C44.0068 52.3116 43.9867 52.3217 43.9665 52.3015L43.7042 52.0998C43.6941 52.0897 43.6941 52.0897 43.6941 52.0796C43.6941 52.0695 43.6941 52.0594 43.7042 52.0594C43.7042 52.0594 44.2893 51.3028 44.3297 51.2524C44.2792 51.212 43.9867 50.9901 43.9867 50.9901C43.9766 50.98 43.9766 50.98 43.9766 50.9699C43.9766 50.9699 43.9766 50.9699 43.9766 50.9598C43.9766 50.9497 43.9766 50.9497 43.9867 50.9396L44.1279 50.758C44.138 50.7379 44.1582 50.7379 44.1783 50.7479L45.1771 51.5247C45.1872 51.5348 45.1973 51.555 45.1872 51.5752L45.0459 51.7568C45.0358 51.7669 45.0358 51.7669 45.0258 51.7669C45.0157 51.7669 45.0056 51.7669 44.9955 51.7568C44.9955 51.7568 44.7029 51.5247 44.6525 51.4945C44.6121 51.5449 44.0169 52.3015 44.0169 52.3015ZM42.9476 51.4642C42.9375 51.4642 42.9274 51.4642 42.9274 51.4541L42.6853 51.2423C42.6752 51.2322 42.6752 51.212 42.6853 51.1918L43.5327 50.2334C43.5428 50.2234 43.5428 50.2234 43.5529 50.2234C43.563 50.2234 43.573 50.2234 43.573 50.2334L43.8152 50.4453C43.8252 50.4554 43.8353 50.4756 43.8152 50.4957L42.9677 51.4541C42.9576 51.4541 42.9576 51.4541 42.9476 51.4642ZM41.9488 50.5563L41.737 50.3343C41.7269 50.3242 41.7269 50.3141 41.7269 50.3141C41.7269 50.3041 41.7269 50.3041 41.7269 50.294L42.1405 49.6382C42.1405 49.6382 42.1708 49.5979 42.1909 49.5575C42.1506 49.5878 42.1102 49.608 42.1001 49.608L41.4242 49.9913C41.4141 50.0014 41.394 50.0014 41.3839 49.9913L41.172 49.7694C41.1619 49.7593 41.1619 49.7391 41.1619 49.729L41.7773 48.5184C41.7874 48.5083 41.7874 48.4982 41.8076 48.4982C41.8177 48.4982 41.8278 48.4982 41.8378 48.5083L42.08 48.7605C42.0901 48.7706 42.0901 48.7706 42.0901 48.7807C42.0901 48.7807 42.0901 48.7908 42.08 48.8009L41.6966 49.4566C41.6966 49.4566 41.6764 49.4869 41.6663 49.5071C41.6865 49.497 42.3624 49.0935 42.3624 49.0935C42.3725 49.0834 42.3927 49.0834 42.4028 49.1035L42.6449 49.3558C42.655 49.3658 42.655 49.3658 42.655 49.3759C42.655 49.386 42.655 49.386 42.6449 49.3961L42.2414 50.0418C42.2414 50.0418 42.2212 50.072 42.201 50.0922C42.2212 50.0821 42.2515 50.0619 42.2515 50.0619L42.9274 49.6988C42.9375 49.6887 42.9576 49.6988 42.9677 49.7088L43.1998 49.9409C43.2099 49.951 43.2099 49.9611 43.2099 49.9711C43.2099 49.9812 43.1998 49.9913 43.1897 49.9913L41.9589 50.5664C41.969 50.5664 41.9589 50.5664 41.9488 50.5563ZM76.0373 37.966C74.524 46.6823 66.4534 53.3407 56.7282 53.3407C48.3953 53.3407 41.283 48.4579 38.4583 41.5676H35.5427C38.2464 51.1817 46.7004 58.2032 56.7282 58.2032C68.2693 58.2032 77.7422 48.9724 78.7309 37.1085L76.0373 37.966ZM48.8694 54.1982C48.819 54.178 48.7484 54.1881 48.6979 54.1881H48.4255C48.3146 54.1881 48.2439 54.1881 48.2137 54.2789C48.0422 54.7228 48.1531 54.8337 48.4457 54.9548C48.708 55.0658 49.0006 55.0859 49.0914 54.864C49.162 54.6622 48.9602 54.2385 48.8694 54.1982ZM68.118 52.0998C68.0171 52.0796 67.9263 52.0998 67.8254 52.1704C67.7245 52.241 67.664 52.3217 67.6438 52.4226C67.6236 52.5235 67.6539 52.6244 67.7245 52.7353C67.7951 52.8463 67.8859 52.9169 67.9868 52.9371C68.0877 52.9573 68.1785 52.9371 68.2794 52.8665C68.3803 52.7959 68.4408 52.7152 68.4509 52.6244C68.4509 52.6042 68.461 52.584 68.461 52.5638C68.461 52.4831 68.4307 52.4024 68.3702 52.3015C68.2995 52.1906 68.2087 52.12 68.118 52.0998ZM49.1721 53.2801C48.819 53.1389 48.6071 53.1893 48.4255 53.6534C48.4053 53.7139 48.365 53.7845 48.4659 53.8249C48.5062 53.8451 48.6172 53.8451 48.6878 53.8451L49.0107 53.8047C49.1418 53.7845 49.3436 53.7038 49.394 53.5828C49.4444 53.4314 49.3133 53.3306 49.1721 53.2801Z" fill="#D9D9D9"/>
</g>
<defs>
<clipPath id="clip0_5_164">
<rect width="110.972" height="60.53" fill="white" transform="translate(0.273926 0.72998)"/>
</clipPath>
</defs>
</svg>
