<svg width="84" height="60" viewBox="0 0 84 60" fill="none" xmlns="http://www.w3.org/2000/svg">
<path fill-rule="evenodd" clip-rule="evenodd" d="M9.40977 18.8H24.0098C25.7198 18.8 27.1098 20.13 27.1098 21.84V22.06C27.1098 23.77 25.7298 25.16 24.0098 25.16H9.40977C7.69977 25.16 6.25977 23.78 6.25977 22.06V21.84C6.25977 20.13 7.69977 18.8 9.40977 18.8Z" fill="#D9D9D9"/>
<path fill-rule="evenodd" clip-rule="evenodd" d="M6.25977 29.9701C6.25977 28.3101 7.80977 27.0901 9.51977 27.0901H22.4598C24.1698 27.0901 25.5598 28.4701 25.5598 30.1901V30.3601C25.5598 32.0701 24.1798 33.4601 22.4598 33.4601H13.6698C13.2298 33.4601 12.8398 33.8501 12.8398 34.2901V38.6001C12.8398 40.3101 11.4598 41.7001 9.73977 41.7001H9.35977C7.64977 41.7001 6.25977 40.3201 6.25977 38.6001V29.9701Z" fill="#D9D9D9"/>
<path fill-rule="evenodd" clip-rule="evenodd" d="M29.0996 38.6001L29.0396 21.4601C29.0396 19.7501 30.3695 18.3101 32.1395 18.3101H32.4695C34.1795 18.3101 35.5696 19.7501 35.5696 21.4601L35.6295 38.6001C35.6295 40.3101 34.2496 41.7001 32.5296 41.7001H32.1395C30.4195 41.7001 29.0996 40.3101 29.0996 38.6001Z" fill="#D9D9D9"/>
<path fill-rule="evenodd" clip-rule="evenodd" d="M68.4696 20.3501L75.3796 31.6301C76.9296 34.0601 77.2596 34.6701 77.2596 36.5001C77.2596 39.3201 74.6596 41.4801 72.3896 41.4801H63.0396C61.3296 41.4801 59.9396 40.3201 59.9396 38.6001V38.4301C59.9396 36.7201 61.3196 35.3301 63.0396 35.3301H68.7896C69.1196 35.3301 69.3396 35.2701 69.4496 35.0501C69.5596 34.7701 69.5096 34.6601 69.3396 34.3901L65.2596 27.8201C65.1996 27.7101 65.1496 27.5401 65.0396 27.5401C64.8696 27.5401 64.8196 27.7101 64.7596 27.8201L58.5096 38.5501C57.5096 40.2601 56.3496 41.4801 54.6896 41.4801H42.6896C40.3696 41.4801 38.0996 39.2701 38.0996 36.9501V21.4601C38.0996 19.7501 39.4796 18.3601 41.1996 18.3601H41.5896C43.2996 18.3601 44.6896 19.7401 44.6896 21.4601V34.1201C44.6896 34.5601 45.0196 34.9501 45.5196 34.9501H51.4896C52.5396 34.9501 53.1496 34.5601 53.6996 33.6201L61.7196 20.3501C62.4896 19.0801 63.7096 18.4101 65.1496 18.4101C66.5296 18.4201 67.6396 19.0201 68.4696 20.3501Z" fill="#D9D9D9"/>
<path fill-rule="evenodd" clip-rule="evenodd" d="M9.40977 18.8H24.0098C25.7198 18.8 27.1098 20.13 27.1098 21.84V22.06C27.1098 23.77 25.7298 25.16 24.0098 25.16H9.40977C7.69977 25.16 6.25977 23.78 6.25977 22.06V21.84C6.25977 20.13 7.69977 18.8 9.40977 18.8Z" fill="#D9D9D9"/>
</svg>
