<svg width="111" height="60" viewBox="0 0 111 60" fill="none" xmlns="http://www.w3.org/2000/svg">
<path d="M72.8301 21.68C72.8301 16.8 72.8301 11.98 72.8301 7.12999C72.9401 7.10999 73.0301 7.09999 73.1201 7.08999C78.1801 6.78999 82.9101 8.01999 87.3901 10.3C97.2901 15.34 103.15 23.42 105.31 34.24C105.6 35.7 105.71 37.22 105.73 38.71C105.78 43.1 105.75 47.5 105.75 51.89C105.75 52.08 105.75 52.27 105.75 52.5C101.24 52.5 96.7701 52.5 92.2301 52.5C92.2301 52.3 92.2301 52.12 92.2301 51.93C92.2301 47.92 92.2501 43.91 92.2201 39.9C92.1801 34.25 90.1001 29.5 85.7401 25.85C82.4001 23.05 78.4901 21.69 74.1301 21.67C73.7201 21.67 73.3001 21.68 72.8301 21.68Z" fill="#D9D9D9"/>
<path d="M80.3101 52.44C80.3101 52.17 80.3101 51.93 80.3101 51.69C80.3001 48.62 80.31 45.55 80.26 42.49C80.21 39.55 78.08 37.41 75.14 37.29C74.3 37.26 73.46 37.28 72.55 37.28C72.55 32.23 72.55 27.26 72.55 22.15C73.8 22.22 75.02 22.18 76.21 22.36C83.45 23.49 88.23 27.61 90.62 34.51C91.17 36.09 91.37 37.75 91.37 39.42C91.38 43.64 91.37 47.86 91.37 52.08C91.37 52.19 91.37 52.3 91.37 52.45C87.69 52.44 84.0401 52.44 80.3101 52.44Z" fill="#D9D9D9"/>
<path d="M43.7199 30.27C44.6699 30.69 45.0199 31.64 45.0499 32.77C45.0699 33.57 45.1199 34.37 45.1399 35.17C45.1499 35.68 45.1699 36.16 45.6099 36.52C45.6799 36.58 45.6899 36.71 45.7599 36.91C45.4799 36.91 45.2699 36.91 45.0599 36.91C44.5799 36.91 44.0999 36.92 43.6199 36.91C42.1999 36.89 42.4299 37.12 42.2799 35.62C42.1799 34.62 42.1199 33.61 41.9899 32.62C41.8799 31.82 41.4799 31.48 40.6599 31.45C39.5399 31.4 38.4199 31.39 37.3099 31.36C37.1699 31.36 37.0199 31.36 36.8299 31.36C36.8299 33.19 36.8299 35.01 36.8299 36.86C35.8399 36.86 34.9099 36.86 33.9299 36.86C33.9299 32.18 33.9299 27.48 33.9299 22.71C34.1099 22.71 34.2799 22.71 34.4499 22.71C36.6399 22.71 38.8299 22.7 41.0199 22.72C41.5699 22.73 42.1399 22.79 42.6699 22.94C45.1899 23.65 46.3299 26.76 44.8699 28.89C44.5199 29.38 44.0999 29.82 43.7199 30.27ZM36.7799 28.91C38.2599 28.91 39.6799 28.94 41.0899 28.88C41.4199 28.87 41.7999 28.59 42.0499 28.33C42.5999 27.74 42.6699 27.01 42.3599 26.28C42.0399 25.54 41.3999 25.23 40.6399 25.2C39.5999 25.17 38.5699 25.19 37.5299 25.18C37.2999 25.18 37.0599 25.18 36.8299 25.18C36.8099 25.35 36.7999 25.45 36.7999 25.54C36.7799 26.66 36.7799 27.76 36.7799 28.91Z" fill="#D9D9D9"/>
<path d="M14.42 32.28C14.42 29.12 14.42 25.97 14.42 22.78C15.39 22.78 16.28 22.78 17.2 22.78C17.2 27.5 17.2 32.19 17.2 36.94C16.29 36.94 15.39 36.98 14.51 36.91C14.3 36.9 14.06 36.57 13.93 36.34C12.27 33.46 10.63 30.58 8.98001 27.69C8.86001 27.47 8.72001 27.27 8.59001 27.05C8.55001 27.06 8.51001 27.07 8.47001 27.08C8.47001 30.34 8.47001 33.6 8.47001 36.9C7.52001 36.9 6.65001 36.9 5.76001 36.9C5.76001 32.19 5.76001 27.5 5.76001 22.75C6.64001 22.75 7.53001 22.69 8.40001 22.77C8.95001 22.82 9.21001 23.34 9.46001 23.8C10.93 26.42 12.41 29.03 13.88 31.65C14.01 31.88 14.16 32.1 14.3 32.32C14.34 32.3 14.38 32.29 14.42 32.28Z" fill="#D9D9D9"/>
<path d="M32.3801 29.8899C32.4001 31.0499 32.2401 32.1799 31.8201 33.2699C31.0801 35.1799 29.7301 36.4499 27.7501 37.0099C26.3001 37.4299 24.8501 37.4399 23.4001 37.0199C21.0201 36.33 19.5501 34.7599 18.9801 32.3699C18.5601 30.5899 18.5401 28.7999 19.0601 27.0199C19.7601 24.6299 21.2801 23.0999 23.7201 22.5599C26.2801 21.9999 28.6301 22.4499 30.5401 24.3499C31.8401 25.6299 32.2301 27.3199 32.3701 29.0699C32.4001 29.3399 32.3801 29.6199 32.3801 29.8899ZM29.4501 29.7999C29.4101 28.8399 29.2801 27.9399 28.8701 27.0799C28.1401 25.5399 26.9301 24.8099 25.2201 24.9199C23.7301 25.0099 22.5201 25.9499 22.0401 27.4899C21.5301 29.1399 21.5501 30.7999 22.1301 32.4299C22.6601 33.9399 23.9601 34.83 25.5301 34.81C27.1901 34.79 28.4301 33.9499 28.9301 32.3699C29.2001 31.5299 29.2901 30.6499 29.4501 29.7999Z" fill="#D9D9D9"/>
<path d="M72.3 37.74C73.57 37.84 74.7701 37.83 75.9501 38.04C77.9601 38.4 79.39 40.08 79.44 42.22C79.52 45.57 79.48 48.92 79.48 52.28C79.48 52.33 79.46 52.37 79.44 52.46C77.08 52.46 74.71 52.46 72.3 52.46C72.3 47.56 72.3 42.7 72.3 37.74Z" fill="#D9D9D9"/>
<path d="M46.98 7.17003C47.96 7.17003 48.91 7.17003 49.9 7.17003C49.9 8.92003 49.9 10.64 49.9 12.39C51.74 12.39 53.54 12.39 55.39 12.39C55.39 10.66 55.39 8.93003 55.39 7.16003C56.39 7.16003 57.34 7.16003 58.34 7.16003C58.34 11.86 58.34 16.54 58.34 21.25C57.38 21.25 56.45 21.25 55.45 21.25C55.45 19.19 55.45 17.14 55.45 15.03C53.58 15.03 51.77 15.03 49.92 15.03C49.92 17.11 49.92 19.17 49.92 21.25C48.93 21.25 47.98 21.25 46.97 21.25C46.98 16.56 46.98 11.87 46.98 7.17003Z" fill="#D9D9D9"/>
<path d="M70.2301 36.91C69.2601 36.91 68.3201 36.91 67.3401 36.91C67.3401 34.83 67.3401 32.78 67.3401 30.69C65.4801 30.69 63.6601 30.69 61.7901 30.69C61.7901 32.77 61.7901 34.82 61.7901 36.89C60.7901 36.89 59.8501 36.89 58.8801 36.89C58.8801 32.18 58.8801 27.5 58.8801 22.77C59.8201 22.77 60.7501 22.77 61.7401 22.77C61.7401 24.51 61.7401 26.24 61.7401 28.01C63.6101 28.01 65.4201 28.01 67.3001 28.01C67.3001 26.29 67.3001 24.56 67.3001 22.8C68.3001 22.8 69.2401 22.8 70.2301 22.8C70.2301 27.5 70.2301 32.18 70.2301 36.91Z" fill="#D9D9D9"/>
<path d="M60.1201 21.24C60.1201 16.54 60.1201 11.88 60.1201 7.09998C60.8901 7.09998 61.6301 7.09998 62.3801 7.09998C64.7901 7.09998 67.2101 7.09998 69.6201 7.09998C70.2601 7.09998 70.2701 7.10998 70.2801 7.75998C70.2901 8.34998 70.2801 8.93998 70.2801 9.59998C67.8101 9.59998 65.3801 9.59998 62.9101 9.59998C62.9101 10.61 62.9101 11.56 62.9101 12.56C65.0401 12.56 67.1601 12.56 69.3201 12.56C69.3201 13.43 69.3201 14.25 69.3201 15.12C67.2001 15.12 65.0801 15.12 62.9301 15.12C62.9301 16.35 62.9301 17.52 62.9301 18.76C65.3701 18.76 67.8101 18.76 70.2601 18.76C70.2601 19.61 70.2601 20.41 70.2601 21.24C66.8901 21.24 63.5201 21.24 60.1201 21.24Z" fill="#D9D9D9"/>
<path d="M60.1399 38.41C63.4999 38.41 66.8599 38.41 70.2399 38.41C70.2399 39.22 70.2399 40 70.2399 40.82C67.8099 40.82 65.3899 40.82 62.9199 40.82C62.9199 41.84 62.9199 42.82 62.9199 43.85C65.0499 43.85 67.1799 43.85 69.3499 43.85C69.3499 44.69 69.3499 45.48 69.3499 46.34C67.2299 46.34 65.0899 46.34 62.9299 46.34C62.9299 47.59 62.9299 48.78 62.9299 50.02C65.3599 50.02 67.7799 50.02 70.2399 50.02C70.2399 50.87 70.2399 51.67 70.2399 52.51C66.8799 52.51 63.5299 52.51 60.1399 52.51C60.1399 47.82 60.1399 43.14 60.1399 38.41Z" fill="#D9D9D9"/>
<path d="M33.3101 52.6C33.3801 52.35 33.4201 52.1301 33.4901 51.9301C35.0401 47.5701 36.6001 43.22 38.1401 38.85C38.2801 38.47 38.4801 38.3301 38.8701 38.3401C39.6801 38.3601 40.5001 38.3601 41.3101 38.3401C41.6301 38.3301 41.8001 38.45 41.9001 38.76C43.4601 43.22 45.0301 47.6701 46.5901 52.1301C46.6401 52.2601 46.6501 52.4001 46.7001 52.5801C45.6801 52.5801 44.7201 52.6001 43.7501 52.5601C43.6201 52.5601 43.4401 52.3001 43.3801 52.1301C43.1501 51.4801 42.9401 50.83 42.7601 50.17C42.6501 49.79 42.4601 49.6301 42.0501 49.6301C40.6801 49.6501 39.3001 49.6501 37.9301 49.6301C37.5501 49.6301 37.3501 49.76 37.2301 50.12C37.0101 50.8 36.7801 51.4801 36.5101 52.1501C36.4401 52.3301 36.2301 52.5701 36.0701 52.5701C35.1801 52.6201 34.2801 52.6 33.3101 52.6ZM41.7501 47.1101C41.1701 45.2601 40.6201 43.4901 40.0601 41.7201C40.0201 41.7201 39.9801 41.7301 39.9401 41.7301C39.3701 43.5101 38.8001 45.3 38.2301 47.1C39.4301 47.11 40.5501 47.1101 41.7501 47.1101Z" fill="#D9D9D9"/>
<path d="M58.8401 47.68C58.5401 49.48 57.8201 50.9 56.3901 51.92C54.3201 53.4 50.1301 53.42 48.1101 51.18C47.3401 50.33 46.7801 49.37 46.5101 48.27C46.0601 46.46 46.0101 44.63 46.4901 42.82C47.4701 39.17 50.7101 37.25 54.3901 38.13C56.8401 38.71 58.4301 40.33 58.8101 42.62C58.8301 42.71 58.8201 42.81 58.8401 42.96C58.6601 42.99 58.5001 43.02 58.3301 43.03C57.9901 43.04 57.6601 43.01 57.3201 43.04C56.4301 43.12 55.8301 43.01 55.4001 41.97C54.7201 40.32 52.0401 40.07 50.6401 41.38C49.8401 42.12 49.4701 43.07 49.3301 44.13C49.1301 45.58 49.1601 47 49.7501 48.36C50.4601 49.99 52.0601 50.75 53.7301 50.24C54.7501 49.93 55.4301 49.25 55.7101 48.21C55.8101 47.82 56.0101 47.66 56.4201 47.68C57.2001 47.7 57.9801 47.68 58.8401 47.68Z" fill="#D9D9D9"/>
<path d="M27.99 40.83C27.99 41.93 27.99 42.94 27.99 44.01C28.19 44.02 28.38 44.04 28.56 44.04C30.25 44.04 31.95 44.05 33.64 44.03C34 44.03 34.13 44.14 34.12 44.49C34.11 45.16 34.12 45.83 34.12 46.57C32.06 46.57 30.03 46.57 27.95 46.57C27.95 48.6 27.95 50.55 27.95 52.55C26.95 52.55 26 52.55 25.01 52.55C25.01 47.84 25.01 43.14 25.01 38.41C28.32 38.41 31.62 38.41 34.95 38.41C34.95 39.21 34.95 40 34.95 40.83C32.65 40.83 30.36 40.83 27.99 40.83Z" fill="#D9D9D9"/>
<path d="M53.47 25.2299C53.47 29.1699 53.47 33.0099 53.47 36.8799C52.46 36.8799 51.49 36.8799 50.47 36.8799C50.47 33.0399 50.47 29.1999 50.47 25.2899C49.03 25.2899 47.63 25.2899 46.22 25.2899C46.22 24.4299 46.22 23.6399 46.22 22.8099C50.04 22.8099 53.84 22.8099 57.68 22.8099C57.68 23.6099 57.68 24.3799 57.68 25.2199C56.3 25.2299 54.92 25.2299 53.47 25.2299Z" fill="#D9D9D9"/>
<path d="M46.0799 9.61003C44.6699 9.61003 43.2999 9.61003 41.8799 9.61003C41.8799 13.51 41.8799 17.37 41.8799 21.25C40.8699 21.25 39.9199 21.25 38.9199 21.25C38.9199 17.41 38.9199 13.57 38.9199 9.65003C37.4799 9.65003 36.0799 9.65003 34.6599 9.65003C34.6599 8.79003 34.6599 8.00003 34.6599 7.16003C38.4599 7.16003 42.2599 7.16003 46.0899 7.16003C46.0799 7.97003 46.0799 8.74003 46.0799 9.61003Z" fill="#D9D9D9"/>
</svg>
